<svg xmlns="http://www.w3.org/2000/svg" viewBox="0 0 882.67 909.7"><defs><style>.cls-1{fill:#fcfcfc;}</style></defs><g id="Layer_2" data-name="Layer 2"><g id="Draw_Layer" data-name="Draw Layer"><path class="cls-1" d="M254.1,45.76a35.81,35.81,0,0,0-4.63.5,21.24,21.24,0,0,0-5.05,1.2c-2.73,1.14-5.39,2.43-8.1,3.63-1.87.76-3.75,1.47-5.65,2.16A66.67,66.67,0,0,0,223,56.8q-6.41,3.23-12.83,6.39a52.47,52.47,0,0,0-6.52,3.72c-1.95,1.33-3.84,2.75-5.87,4-2.34,1.39-4.7,2.75-7,4.27s-4.5,3.22-6.66,4.93l-.87.69c-1.86,1.35-3.72,2.68-5.49,4.16s-3.19,2.79-4.76,4.22c-3,2.71-5.86,5.5-9,8-3.62,2.48-7.11,5.14-10.49,7.93-3.22,2.66-6.28,5.51-9.52,8.12-2.1,1.59-4.27,3.11-6.28,4.8s-3.92,3.33-5.85,5c-4,3.59-8,7.32-11.9,11-1.92,1.8-3.83,3.6-5.68,5.48s-3.46,3.89-5.09,5.9c-1,1.21-2,2.42-2.91,3.65a32.43,32.43,0,0,0-3.1,4.38,25.34,25.34,0,0,0-1.46,3.58,13.14,13.14,0,0,0-.51,3.07v.17l-1.77,2.07c-2.52,2.92-4.94,5.91-7.33,8.94-.29.39-.59.78-.89,1.16a5.83,5.83,0,0,0-.79,2.91,5.75,5.75,0,0,0,5.75,5.75,5.5,5.5,0,0,0,4.07-1.69c2.6-3.31,5.29-6.52,8-9.74q1.76-2.09,3.55-4.11l1.23-1a35.17,35.17,0,0,0,5-5.44l.12-.14c.63-.57,1.31-1.09,1.93-1.68,1.54-1.44,3.06-2.9,4.54-4.4a50.59,50.59,0,0,0,3.82-4.2c1.25-1.58,2.42-3.23,3.62-4.85.61-.73,1.24-1.43,1.9-2.11a23.86,23.86,0,0,0,3.79-4.24,5.78,5.78,0,0,0,.48-4.75c2.45-2.21,4.92-4.4,7.45-6.52,3.11-2.35,6.26-4.65,9.2-7.21s6-5.32,9.19-7.81c1.67-1.27,3.34-2.52,5.07-3.72a70.84,70.84,0,0,0,7-5.65c3.53-3.19,6.92-6.55,10.64-9.52,1.88-1.38,3.73-2.78,5.56-4.22a99.84,99.84,0,0,1,9.62-6.41c1.81-1.06,3.56-2.18,5.28-3.38s3.34-2.32,5.12-3.33c3.44-1.94,7-3.56,10.55-5.34s7-3.62,10.6-5.28c2.16-.84,4.34-1.61,6.48-2.5,2.6-1.09,5.15-2.28,7.7-3.46a13.81,13.81,0,0,1,2.32-.69l2.06-.37c1.11-.11,2.22-.2,3.34-.2s2.32.08,3.47.2,2.41.47,3.62.68a37.21,37.21,0,0,1,5.44,1.11,5.75,5.75,0,0,0,6.5-8.44A6,6,0,0,0,271,48.12a65.2,65.2,0,0,0-7.63-1.53,42.23,42.23,0,0,0-8.15-.85l-1.09,0Z"/><path class="cls-1" d="M114.19,146.92a16.78,16.78,0,0,0-2.2.64,25,25,0,0,0-3.24,1.5,20,20,0,0,0-4.87,3.86c-.57.62-1.1,1.29-1.63,2-.76,1-1.55,1.93-2.25,3a28.24,28.24,0,0,0-2.66,4.54c-.63,1.43-1.21,2.88-1.77,4.33l-.21.38c-.32.6-.64,1.2-1,1.81-1.24,1.47-2.46,3-3.64,4.48a51.42,51.42,0,0,0-4.93,7.16,71.69,71.69,0,0,0-6.13,15.41,121.25,121.25,0,0,0-3.21,17.33c-.33,2.75-.48,5.52-.62,8.28s-.31,5.79-.22,8.69a171.45,171.45,0,0,0,1.57,17.68l-.12-.93A148.65,148.65,0,0,0,80,262.93a43.67,43.67,0,0,0,2.68,8,12,12,0,0,0,2.2,3.47,20.15,20.15,0,0,0,2.38,1.94,10.72,10.72,0,0,0,2.83,1.2,7.15,7.15,0,0,0,1.73.32,8.52,8.52,0,0,0,6.09.36,19.91,19.91,0,0,0,4.59-2,34.93,34.93,0,0,0,4.37-3.1,76.26,76.26,0,0,0,6.22-5.43c7.8-7.5,14.6-15.89,21.26-24.4q4.19-5.37,8.18-10.89c2.34-3.2,4.6-6.47,7-9.65,1.31-1.59,2.71-3.09,4.07-4.64a58,58,0,0,1,4.88-5.28,10.33,10.33,0,0,1,1.29-.75,10.75,10.75,0,0,1,1.11-.31,13.53,13.53,0,0,1,1.56,0,20.84,20.84,0,0,1,2.32.61,17.68,17.68,0,0,1,2,1.22l1.86,1.52.33.28c.07.25.15.5.23.73a6.5,6.5,0,0,0,2.88,3.59,5.75,5.75,0,0,0,7-.9l.23-.24a6.41,6.41,0,0,0,.65-.83,4.44,4.44,0,0,0,1-1.29,6,6,0,0,0,.83-3,6.47,6.47,0,0,0-1.85-4.34,7.52,7.52,0,0,0-2.83-1.9c-1.3-1.07-2.59-2.16-3.94-3.16a18.71,18.71,0,0,0-8.2-3.51c-.91-.15-1.83-.25-2.75-.33a15.9,15.9,0,0,0-4.5.45,16.74,16.74,0,0,0-3.92,1.54A17.41,17.41,0,0,0,149.9,205c-1,.93-1.92,2.06-2.85,3.08s-1.66,1.88-2.48,2.83c-.69.78-1.39,1.54-2.09,2.31a47.21,47.21,0,0,0-3,3.77c-1.34,1.78-2.58,3.64-3.89,5.45q-4.38,6-8.84,12c-1.26,1.61-2.51,3.21-3.77,4.8a5.82,5.82,0,0,0-4.38-.55,5.6,5.6,0,0,0-3.44,2.65c-.31.66-.62,1.33-.94,2-.69,1.22-1.44,2.4-2.17,3.59-.92,1.51-1.93,3-3,4.4-1.74,2.11-3.72,4-5.5,6.09-1.35,1.56-2.64,3.19-4,4.72-1.15.71-2.33,1.38-3.49,2.06s-2,1.11-3,1.67l-.08.05-.14-.28a62,62,0,0,1-2.34-8.28c-.67-3-1.23-6-1.7-9.07-.12-1-.25-1.93-.38-2.9-.35-2.7-.62-5.42-.86-8.14-.25-2.9-.45-5.86-.41-8.78.08-5.65.45-11.31,1.08-16.92.38-2.42.77-4.86,1.28-7.26a5.6,5.6,0,0,0,1.81.86,5.77,5.77,0,0,0,4.43-.58,5.52,5.52,0,0,0,2.64-3.43c.07-.51.13-1,.19-1.53h0c.14-1.42.32-2.84.51-4.25l1-4.74c.16-.78.44-1.57.66-2.34l.78-2.75c.45-1.62,1.16-3.2,1.74-4.78.38-1.06.83-2.09,1.27-3.13a42.29,42.29,0,0,1,3.05-5.76c.2-.32.42-.64.63-1l.46-.44c.62-.61,1.26-1.21,1.89-1.82s1.19-1.18,1.76-1.79c.31-.33.59-.69.87-1.05a11,11,0,0,0,1.33-1.85,5.41,5.41,0,0,0,4.07-2.76c.61-1.17,1.22-2.35,1.73-3.56a6.32,6.32,0,0,0,1.51-1.7,6.5,6.5,0,0,0,.64-5,5.71,5.71,0,0,0-4-4,16.25,16.25,0,0,0-2-.29l-2.26.3ZM99.27,193.85c0,.14,0,.28,0,.42,0-.14,0-.28,0-.42ZM92.39,266l.21.17h0l-.2-.17Z"/><path class="cls-1" d="M264.76,39.58a30.56,30.56,0,0,0-6.28,1.07c-.5.13-1,.28-1.48.43-2.47-.25-5,.72-7.24,1.66a35.4,35.4,0,0,0-4.6,2.22c-2.2,1.32-4.33,2.76-6.49,4.14-1.12.72-2.21,1.47-3.3,2.22-.34.23-.68.48-1,.73l-.05,0A15,15,0,0,0,231,54.33,5.87,5.87,0,0,0,229.52,60a5.65,5.65,0,0,0,2.64,3.43,5.9,5.9,0,0,0,5.81,0,14.83,14.83,0,0,0,2.17-1.4c3-1.67,6.05-3.33,9.11-4.94a6.34,6.34,0,0,0,.93.68,8.73,8.73,0,0,0,2.3.85,10.22,10.22,0,0,0,3.82,0l.76-.14a5.48,5.48,0,0,0,1.21,1.81,5.81,5.81,0,0,0,8.13,0c1-.91,1.89-1.84,2.85-2.74a43.6,43.6,0,0,1,7.25,1.59l.4,1.09a58,58,0,0,1,2.7,11.27c.35,2.89.51,5.79.72,8.69.05.86,0,1.72,0,2.57V85q-.42,2-.93,3.9c-.92,3.54-1.84,7.08-2.65,10.65q-1,4.33-2,8.67l-2.46,1.58c-2.2,1.42-4.39,2.86-6.66,4.15-2,1.13-4.09,2.11-6.17,3.08-2.23,1-4.42,2.21-6.57,3.4s-4,2.29-5.92,3.53a36.32,36.32,0,0,0-3.87,2.92,27.89,27.89,0,0,0-2.56,2.76,39.09,39.09,0,0,0-5,6.69,81.7,81.7,0,0,0-3.46,7.48,26.91,26.91,0,0,0-2,6.11c-.3,1.81-.61,3.61-.82,5.43-.16,1.41-.33,2.82-.46,4.23-.15,1.66-.21,3.29-.25,4.95-.06,2.77,0,5.55.23,8.31.1,1.51.25,3,.36,4.54-.21.88-.39,1.78-.52,2.68a15.74,15.74,0,0,0-.25,2.28c0,.17,0,.34.07.51a12.72,12.72,0,0,0,.31,2,5.77,5.77,0,0,0,8.45,3.44,3.62,3.62,0,0,0,1.37-1c.07-.07.13-.16.2-.23a5.79,5.79,0,0,0,1.48-2.54,11.07,11.07,0,0,0,.51-4.09c0-.6,0-1.19-.07-1.79.37-1.34.79-2.67,1.21-4,.54-1.76,1.18-3.48,1.85-5.19a5.52,5.52,0,0,0-.58-4.43,5.76,5.76,0,0,0-3.08-2.54c0-.25,0-.51,0-.76,0-1.1.2-2.21.29-3.31.09-.9.2-1.79.31-2.68s.27-1.7.42-2.55h.62a23,23,0,0,0,5.57-1.1,56.65,56.65,0,0,0,11.26-5.28,100.71,100.71,0,0,0,18-13.65c2.87-2.67,5.71-5.44,8.35-8.34a35.13,35.13,0,0,0,5.89-9.11,63.35,63.35,0,0,0,4-11c.68-2.72,1.15-5.55,1.56-8.33.39-2.6.81-5.21,1.05-7.83a52,52,0,0,0,.38-6.36,43.78,43.78,0,0,0-.86-7.74A56.4,56.4,0,0,0,292.35,61c-.09-.2-.19-.4-.29-.6-.08-.49-.17-1-.25-1.48a22.38,22.38,0,0,0-1.6-4.91,18.61,18.61,0,0,0-3-4.84,22.83,22.83,0,0,0-6.78-5.46,36.93,36.93,0,0,0-4.18-1.82,36.33,36.33,0,0,0-3.69-1.24,27.22,27.22,0,0,0-7-1.07ZM240,182.36c0,.17.05.33.07.49a3.85,3.85,0,0,1-.07-.49Z"/><path class="cls-1" d="M249.93,132.86l-1.37.58a19.87,19.87,0,0,0-1.75,1.4c-.44.52-.86,1-1.25,1.59s-.77,1.18-1.12,1.8c-1,1.76-1.79,3.64-2.6,5.48-.48,1.09-1,2.18-1.43,3.28a5.89,5.89,0,0,0-2.36,5.55q-1.31,3.12-2.56,6.26l-.09.19c-.86,1.76-1.58,3.59-2.32,5.41s-1.46,3.93-2.17,5.91c-.54,1.51-.89,3.07-1.29,4.62-.18.65-.36,1.3-.53,1.95a5.82,5.82,0,0,0,4,7.07,5.42,5.42,0,0,0,1.78.2c0,2.32-.06,4.64-.08,7q-.08,8.13-.09,16.26,0,32.59,0,65.19v32.09c0,5.6,0,11.21,0,16.82,0,2.62.18,5.25.27,7.86.11,3,.23,6,.34,9,.2,5.61.66,11.21,1.25,16.79,0,5,0,10,0,15,0,11.32.15,22.65.44,34,.13,5,.35,9.94.44,14.91q.15,8.79.31,17.58c0,1.16.09,2.31.14,3.46a26.51,26.51,0,0,0,.8,6.89,5.94,5.94,0,0,0,2.64,3.44,6,6,0,0,0,4.43.57c2.94-.58,4.17-3.34,5.2-5.79.43-1,.85-2.05,1.21-3.11a50.38,50.38,0,0,0,1.81-6.82,38.32,38.32,0,0,0,.53-8.56c-.07-2.57-.21-5.14-.35-7.71-.27-5-.8-9.93-1.19-14.9s-.68-10.15-1.15-15.21c-.3-3.31-.62-6.62-.9-9.94-.24-2.88-.61-5.74-1-8.61l0,.13q-.48-3.58-1-7.17c-.34-2.64-.66-5.29-.93-7.95q0-22.6,0-45.22,0-15.54.84-31.07c.31-5.64.62-11.26,1.06-16.89.46-5.95,1-11.88,1.47-17.83q.36-4,.74-7.92c.24-2.63.39-5.26.57-7.89.33-5,.57-10.12.63-15.19q0-4.92.11-9.85c0-2.8-.12-5.62-.18-8.42-.12-5.18-.42-10.37-.77-15.53-.2-2.88-.64-5.77-1.08-8.62-.18-1.66-.34-3.29-.43-5s-.15-3.65-.19-5.47l-.06-3c.25-.5.51-1,.77-1.49a46.56,46.56,0,0,1,3.39-5.64c.73-.85,1.53-1.63,2.24-2.51a17.73,17.73,0,0,0,1.27-1.72,10.08,10.08,0,0,0,1.07-2.53c.13-.71.23-1.42.31-2.13a14,14,0,0,0-.36-2.81q-.4-1-.84-2a8.09,8.09,0,0,0-1.66-2.16,7.16,7.16,0,0,0-5-2.06,5.52,5.52,0,0,0-2,.38ZM248.58,140c0,.11,0,.22-.05.33,0-.11,0-.22.05-.33Z"/><path class="cls-1" d="M157.48,200.31a17,17,0,0,0-4.25,1.37,18.85,18.85,0,0,0-4.42,2.95,29.41,29.41,0,0,0-3.42,3.72l-2.68,3.22c-2,2.45-4.2,4.83-6.15,7.35-2.23,2.88-4.24,5.92-6.3,8.93-3.49,5.09-7.12,10.07-10.84,15-1.64,2-3.21,4.08-5,6a100.08,100.08,0,0,1-9.37,9.28,51,51,0,0,1-7.81,4.6,19.85,19.85,0,0,0-.57-2,16.9,16.9,0,0,0-1.29-2.8,6.86,6.86,0,0,0-3.56-3,33.67,33.67,0,0,1-.75-3.34,33.11,33.11,0,0,1-.22-3.45c0-1.37.1-2.73.18-4.09.21-3.39.5-6.78.75-10.17a5.5,5.5,0,0,0-1.68-4.06,5.73,5.73,0,0,0-8.13,0,6,6,0,0,0-1.69,4.06c-.22,3-.46,5.91-.66,8.87a54.68,54.68,0,0,0-.17,7.57A38.39,38.39,0,0,0,81,258.79c.34,1.14.79,2.26,1.25,3.38a26.85,26.85,0,0,0-.29,2.8,10,10,0,0,0,1.62,6,9.77,9.77,0,0,0,4.11,3.69,9.41,9.41,0,0,0,3.5.92,16.32,16.32,0,0,0,2.21.06c3.35-.1,6.43-1.49,9.41-2.87a50.5,50.5,0,0,0,9.77-6,76.52,76.52,0,0,0,8.37-8,138.28,138.28,0,0,0,9.12-11c2.79-3.68,5.49-7.42,8.15-11.2,2.38-3.4,4.67-6.86,7.09-10.22,1.66-2.08,3.42-4.07,5.13-6.1a70.45,70.45,0,0,1,6.61-7.51,6.15,6.15,0,0,1,2.9-1.21,16.9,16.9,0,0,1,2.36,0,20.69,20.69,0,0,1,2.48.7,48,48,0,0,1,5.8,3.29c.32.3.62.61.92.93.14.24.27.48.4.73a20.92,20.92,0,0,1,.92,3c0,.25,0,.51.05.76,0,2.34-.09,4.67-.18,7-.12,3.34-.31,6.69-.5,10-.15,2.48-.26,4.95-.38,7.42-.29,2.33-.6,4.65-.9,7q-2.15,16.42-4,32.88c-.65,5.5-1.21,11-1.77,16.49s-.88,10.78-1.29,16.16c-.82,10.67-.9,21.4-1,32.1,0,2.69-.09,5.38-.22,8.07-.1,1.93-.27,3.86-.45,5.79q-.52,3.18-1.09,6.35c-.37,2-.9,4-1.25,6-.44,2.52-.73,5.05-1,7.6-.39,4.48-.57,9-1,13.46q-.63,6.31-1.43,12.61c-.33,2.54-.61,5.08-.77,7.65a44.67,44.67,0,0,0,.31,7.49c.33,3.06.77,6.1,1.26,9.14a28,28,0,0,0,2.73,7.6,20.72,20.72,0,0,0,2,3.26,37.69,37.69,0,0,0,3,3.63q.36.36.75.69c.24.8.52,1.58.83,2.34a18.45,18.45,0,0,0,2.26,4.31c.42.55.8,1.05,1.24,1.57a10.9,10.9,0,0,0,1.8,1.57,15.3,15.3,0,0,0,4.44,2.18,15.71,15.71,0,0,0,4.33.66c.65.48,1.31.94,2,1.39a21.42,21.42,0,0,0,5.65,2.69,35,35,0,0,0,6.69,1.13,21.59,21.59,0,0,0,5.5-.26,38.15,38.15,0,0,0,4.38-.88c1.34-.35,2.65-.72,4-1.13a38.49,38.49,0,0,0,4.45-1.83c1.13-.51,2.21-1.15,3.3-1.74.46-.26.93-.51,1.4-.76,1.5-.15,3-.34,4.5-.54,2.32-.32,4.63-.63,6.93-1a24.37,24.37,0,0,0,4.54-1.15,14.16,14.16,0,0,0,3.85-2c.72-.55,1.42-1.11,2.11-1.71s1.35-1.11,2-1.67l1-.87a17.48,17.48,0,0,0,2.67-2.9c1.57-2.06,3.33-4.73,3.46-7.4.07-.25.12-.49.17-.75a23.69,23.69,0,0,0,.33-3.46,23.1,23.1,0,0,0-.38-4.31,28.56,28.56,0,0,0-1.22-4.88,11.32,11.32,0,0,0-.91-2,4.25,4.25,0,0,0-.83-1.08l0-1.17c0-.44,0-.88-.05-1.33a9.43,9.43,0,0,0-.07-1.06,6.54,6.54,0,0,0-.86-3.05,5.71,5.71,0,0,0-5-2.85,5.84,5.84,0,0,0-5.55,4.23,21.52,21.52,0,0,0-.54,2.77c-.16.92-.38,1.82-.6,2.72a46,46,0,0,1-1.64,5.11,21.16,21.16,0,0,1-2,3.2,39.92,39.92,0,0,1-5.22,5.72c-1.33,1-2.69,1.85-4.07,2.72-1.17-.05-2.34-.14-3.5-.25s-2.41-.44-3.6-.76l-1.8-.51a22.34,22.34,0,0,0-7.28-.72,99.29,99.29,0,0,0-10,1.44,22.87,22.87,0,0,1-3.41.11,12.25,12.25,0,0,1-1.34-.42c-2.4-1.09-4.74-2.26-7.07-3.49s-5-2.3-7.37-3.77l-.51-.65c-.19-2.54-.36-5.09-.65-7.63-.59-5.07-1-10.19-1.2-15.3-.23-5.41-.48-10.81-.45-16.24,0-5.16.08-10.34.31-15.5.19-4.35.46-8.68.81-13,.39-2.22.77-4.46,1.05-6.69.33-2.62.59-5.25.89-7.87.59-5.4,1-10.81,1.51-16.22s.65-10.59.86-15.88c.18-4.27.59-8.52.75-12.78.18-4.72.53-9.41.78-14.12.22-4.2.35-8.41.68-12.61s.76-8.46,1.29-12.68c.33-2.23.69-4.46,1-6.69s.48-4.72.68-7.09.3-4.85.4-7.28a129.38,129.38,0,0,0,1.19-13c.07-2.88,0-5.77,0-8.65q0-1.49-.12-3c0-.13,0-.27,0-.41,0-3.89-.38-9.47-4.21-11.4-.33-.38-.68-.74-1-1.09a15.43,15.43,0,0,0-3-2.34c-1.09-.69-2.2-1.31-3.32-1.94a26.76,26.76,0,0,0-7.91-3.14,19.06,19.06,0,0,0-3.75-.36,21.07,21.07,0,0,0-3.62.31ZM92.22,264l.15.11h0l-.14-.11Z"/><path class="cls-1" d="M227.49,142.08a5.6,5.6,0,0,0-2.64,3.44,144.71,144.71,0,0,0-2.36,17c-.39,5.16-.55,10.34-.78,15.51-.25,5.5-.45,11-.57,16.49-.06,2.76,0,5.52.09,8.27s.4,5.5.62,8.24c.43,5.51.81,11,1.3,16.51.45,5,.94,10,1.17,15.09.26,5.71.4,11.43.6,17.14.19,5.4.44,10.8.61,16.2.15,5,.36,10,.77,15,.47,5.68,1.07,11.35,1.62,17,.26,2.73.46,5.46.68,8.2.19,2.4.28,4.81.52,7.21.32,3.13.65,6.25,1.08,9.37.35,2.55.74,5.1,1.09,7.65.07.46.13.93.2,1.4.66,5.34,1.2,10.69,1.75,16s1.22,10.65,1.77,16c.26,2.49.44,5,.66,7.47.24,2.67.52,5.34.75,8s.49,5.51.77,8.27c.27,2.54.37,5.12.5,7.67.11,2.06.13,4.12.21,6.18q.14,3.4.37,6.81c.15,2.16.45,4.32.57,6.48a43,43,0,0,1-.15,6.11,41,41,0,0,1-1.94,8.44c-.55,1.19-1.13,2.37-1.71,3.54a30.59,30.59,0,0,1-2.39,4.3,26.82,26.82,0,0,1-2.75,2.58,25.51,25.51,0,0,1-4.26,2.49,86.43,86.43,0,0,1-18.91,5.29c-4.1.51-8.21.9-12.33,1.33a46.12,46.12,0,0,1-6.75.24c-1.87-.08-3.73-.27-5.58-.48a27.85,27.85,0,0,1-4.31-1.12c-.46-.23-.9-.49-1.35-.76a23.21,23.21,0,0,1-2.13-2.3,32.84,32.84,0,0,1-2.81-4.65,37,37,0,0,1-1.73-6.37,143.26,143.26,0,0,1-.3-15.23c0-5.78.2-11.55.4-17.32a5.75,5.75,0,0,0-11.5,0c-.19,5.46-.34,10.92-.39,16.39,0,5.18-.23,10.41.22,15.57a34.51,34.51,0,0,0,5.08,15.82c.84,1.3,1.79,2.52,2.74,3.73a17.76,17.76,0,0,0,4.16,4,21.65,21.65,0,0,0,6.58,2.85,44.56,44.56,0,0,0,5.39.9,69.83,69.83,0,0,0,7.36.52,69.28,69.28,0,0,0,7.32-.53,161.88,161.88,0,0,0,16.29-2.08,87.6,87.6,0,0,0,13.75-4,39,39,0,0,0,7.53-3.42,37.42,37.42,0,0,0,3.38-2.51,30.45,30.45,0,0,0,2.48-2.2,23.89,23.89,0,0,0,1.74-2.14l-.9,1.17a29.14,29.14,0,0,0,2.52-3.64c.28-.49.55-1,.8-1.48.6-1.17,1.17-2.34,1.74-3.53a31.82,31.82,0,0,0,2.39-6.06c.33-1.36.66-2.71.89-4.09a56.63,56.63,0,0,0,1-8.89c0-2.34-.26-4.63-.45-6.95-.21-2.51-.39-5-.49-7.55s-.13-5.17-.27-7.75c-.29-5.34-.84-10.64-1.29-16-.85-10-1.89-19.95-3-29.92-.58-5.08-1.08-10.18-1.63-15.26s-1.34-9.93-2-14.88c-.53-5.35-.92-10.7-1.34-16.05-.45-5.56-1-11.1-1.59-16.65-1.1-10.71-1.2-21.48-1.66-32.23-.23-5.36-.4-10.72-.56-16.09-.15-5.21-.5-10.42-1-15.62-.48-5.45-1-10.9-1.38-16.36-.2-2.63-.37-5.27-.59-7.9s-.49-5.08-.48-7.62q0-6.08.16-12.15c.08-3.7.31-7.41.47-11.11.31-6.89.53-13.77,1.32-20.62.41-2.64.85-5.27,1.37-7.89a6,6,0,0,0-.58-4.42,5.82,5.82,0,0,0-3.44-2.65,5.91,5.91,0,0,0-1.51-.2,5.78,5.78,0,0,0-2.92.78Z"/><path class="cls-1" d="M125.33,151.44a17.19,17.19,0,0,0-3,2.28c-.42.36-.83.71-1.23,1.07-.74.66-1.46,1.33-2.19,2a78.15,78.15,0,0,0-9.43,10.8c-2.28,3-3.88,6.45-6,9.54-.76.91-1.54,1.81-2.3,2.73q-1.77,2.13-3.42,4.35a7.83,7.83,0,0,0-5,2.38,15.29,15.29,0,0,0-2.48,3.79c-.36.78-.72,1.56-1.06,2.35-.94,2.16-1.88,4.31-2.78,6.49l.18-.43c-.95,2.26-1.87,4.52-2.81,6.79a43,43,0,0,0-2.11,6.16A86.58,86.58,0,0,0,79.78,229a47,47,0,0,0,1.89,16.26A21.79,21.79,0,0,0,88.4,255a24.36,24.36,0,0,1,2.14,1.93c.15.17.31.33.48.5a8.09,8.09,0,0,0,1.13,4.15,8.23,8.23,0,0,0,7.12,4.09,7.79,7.79,0,0,0,5.9-2.41,27.49,27.49,0,0,0,2-2.49c.52-.72,1.05-1.45,1.54-2.21,1.07-1.69,2.08-3.43,3.12-5.15,1.88-3.09,3.78-6.15,5.9-9.07,2.36-2.87,4.85-5.63,7.2-8.5,2.72-3.33,5.29-6.8,8.1-10.07a126.58,126.58,0,0,1,17-16.25,36.74,36.74,0,0,1,3.42-2.26,52,52,0,0,1,4.89-2.32c1.61-.72,3.19-1.5,4.77-2.27a9.23,9.23,0,0,0,3.34,3.69,21.88,21.88,0,0,0,5.47,2.27l.29.16a8.58,8.58,0,0,0,.82,1,8,8,0,0,0,3.51,2.07c.44.86.87,1.73,1.32,2.6q1.07,2.08,2.16,4.15c.34.66.7,1.31,1.05,2a12.87,12.87,0,0,0,2.89,4.14,8.23,8.23,0,0,0,3.64,2.12,8.45,8.45,0,0,0,6.36-.83c6.05-3.3,4.92-10.84,3.93-16.45a34.72,34.72,0,0,0-3-8.72,26.07,26.07,0,0,0-5.07-7.2,52.37,52.37,0,0,0-6.47-5.07c-2.48-1.95-5-3.89-8-4.88a15.18,15.18,0,0,0-9.31.11c-1.17.37-2.32.82-3.48,1.23a75.86,75.86,0,0,0-8.73,3.9C151.54,190,149.26,191,147,192a41.1,41.1,0,0,0-7.89,5.17c-1.88,1.48-3.71,3-5.52,4.56A123.86,123.86,0,0,0,123.17,212c-3,3.32-5.81,6.85-8.6,10.37a8.17,8.17,0,0,0-4.78,1.1c-2,1.19-3.53,3.34-4.86,5.21-.82,1.16-1.55,2.36-2.26,3.59a72.89,72.89,0,0,0-3.28,6.78l-1.33,2.3c-.23-.35-.44-.72-.64-1.09a27.38,27.38,0,0,1-1-3.9,62.1,62.1,0,0,1-.16-8.3c.1-2.82.26-5.63.55-8.43a50.13,50.13,0,0,1,1.89-7.27c.22-.62.44-1.24.68-1.86a11.37,11.37,0,0,0,.54,1.11,8.24,8.24,0,0,0,7.12,4.09,8.37,8.37,0,0,0,8-6.06c2.85-9.35,6-18.6,9.62-27.69a7.17,7.17,0,0,0,0-4.53l.27-.38c1.72-2.15,3.48-4.27,5.29-6.34a56.21,56.21,0,0,1,4.55-4.45c2.81-2.57,4.66-6.18,3.59-10a8.53,8.53,0,0,0-5.87-5.86,8.09,8.09,0,0,0-2.2-.3,10.6,10.6,0,0,0-4.93,1.36Zm46.52,57,.07,0h0l-.07,0Zm.6.56h0l.25.33-.27-.34ZM94.71,246.84l-.15.12.15-.12Z"/><path class="cls-1" d="M257.31,51.45a38.49,38.49,0,0,0-5.06,1.24A102.28,102.28,0,0,0,241.71,57c-2.38,1.08-4.73,2.23-7.11,3.34-2.11.83-4.24,1.6-6.29,2.59a48.9,48.9,0,0,0-5.63,3.32A69.58,69.58,0,0,0,211.06,76c-3.83,3.94-7.68,8-10.28,12.94a46.88,46.88,0,0,0-5.29,15.39c-.39,2.78-.72,5.54-.89,8.34-.24,4.07-.54,8.45,1.46,12.16a13.31,13.31,0,0,0,9,6.41,35.29,35.29,0,0,0,3.52.69,53.86,53.86,0,0,0,8.21.64,43.58,43.58,0,0,0,8.2-1.1,42.69,42.69,0,0,0,6.56-1.78c4.13-1.52,8.23-3.16,12.3-4.86,2.8-1.19,5.56-2.44,8.32-3.74a70.48,70.48,0,0,0,6.54-3.47,66.33,66.33,0,0,0,5.82-3.9,54.41,54.41,0,0,0,6.05-5.1c1.66-1.73,3.08-3.72,4.58-5.59a73.71,73.71,0,0,0,5.13-7,51.93,51.93,0,0,0,3.85-7.72,49.08,49.08,0,0,0,1.95-7,58.11,58.11,0,0,0,1-6.16,31,31,0,0,0,.31-4.52,23,23,0,0,0-1-6.33,17.78,17.78,0,0,0-1.72-3.95c-.33-.55-.73-1.08-1.08-1.63a8.43,8.43,0,0,0-4.93-3.79l-.3-.08a8.76,8.76,0,0,0-2.9-1.53,48,48,0,0,0-11.15-2.41c-.39,0-.77,0-1.16,0a33.74,33.74,0,0,0-5.85.6Zm7.08,16c2.1.43,4.16,1,6.22,1.65.08.24.14.49.2.74a29.18,29.18,0,0,1-.17,4.67c-.25,1.43-.58,2.83-.93,4.24-.4,1.6-.81,3.16-1.36,4.7a54.74,54.74,0,0,1-5.5,8.73c.28-.35.55-.71.83-1.07-1.39,1.8-2.76,3.65-4.29,5.31a35.94,35.94,0,0,1-3.91,3.59,88,88,0,0,1-17.71,9.62l0,0c-3,1.21-6,2.44-9.1,3.59a58,58,0,0,1-9.95,2.68,37.42,37.42,0,0,1-6.61,0l-1.13-.2c0-.88.09-1.76.14-2.63.09-1.55.21-3.1.38-4.65a41,41,0,0,1,2.08-8c.5-1.13,1-2.25,1.6-3.34a32.41,32.41,0,0,1,2.23-3.54,86.63,86.63,0,0,1,11.95-11.89,48.92,48.92,0,0,1,7.89-4.73l2.39-.9c1.8-.69,3.54-1.52,5.27-2.36,2.24-1.09,4.51-2.1,6.79-3.09,1.49-.61,3-1.23,4.5-1.75a36.52,36.52,0,0,1,5-1.3,23.08,23.08,0,0,1,3.22,0ZM208.2,114.75l.44.33h0l-.41-.32Zm35.63,10-.73.3,1.07-.45-.34.15Zm.34-.15.91-.38-.91.38Z"/><path class="cls-1" d="M203.25,77.1c-1.43.94-2.89,1.82-4.35,2.73a66.82,66.82,0,0,0-7.2,5.09c-1.7,1.4-3.22,3-4.87,4.46s-3.38,2.86-4.94,4.43c-.65.64-1.26,1.31-1.9,2-.94.94-2,1.73-3,2.66-1.39,1.34-2.73,2.73-4.1,4.09-3,2.93-5.88,5.89-9,8.61-2.94,2.54-6,5-9,7.37a14.4,14.4,0,0,0-3.33,1.29l-.64.49c-.81.61-1.61,1.24-2.4,1.87-.48.38-1,.88-1.45,1.3l-1.13,1.1c-.65.42-1.29.85-1.93,1.29a71.59,71.59,0,0,0-8.27,6.77,59,59,0,0,0-11.81,15.14A114.32,114.32,0,0,0,119,159c-.79,1.94-.19,4.62.82,6.36a8.25,8.25,0,0,0,11.29,2.95l1.67-1.29a8.29,8.29,0,0,0,2.13-3.64c.21-.54.43-1.09.66-1.63-.12.26-.23.53-.34.8.48-1.16,1-2.33,1.52-3.47.46-1,.92-1.94,1.39-2.91l.18-.37c3-.79,4.95-4,6.87-6.22,1.55-1.82,3.17-3.58,4.79-5.34,1.29-1.41,2.57-2.84,3.87-4.25l2.08-1.63q1.76-1.34,3.48-2.7l2.19-1.63.47-.36a8,8,0,0,0,1.27-1c.38-.28.77-.61,1.28-1l1.55-1.22c3.82-3,7.66-6,11.22-9.27,3-2.75,5.86-5.59,8.7-8.47,1.51-1.52,3-3.07,4.66-4.44s2.82-2.85,4.32-4.19,3-2.55,4.43-3.89c1.24-1.18,2.47-2.36,3.76-3.47,2.7-1.93,5.59-3.56,8.37-5.37a8.54,8.54,0,0,0,3.79-4.93,8.28,8.28,0,0,0-.83-6.36,8.61,8.61,0,0,0-7.3-4.11,7.3,7.3,0,0,0-4,1.15Z"/><path class="cls-1" d="M274.79,92.11a9.51,9.51,0,0,0-4,4.55c-.3.63-.62,1.25-.94,1.87-.48.91-1,1.81-1.59,2.68-.35.36-.71.7-1.08,1a27.31,27.31,0,0,1-3,1.82c-1.41.72-2.91,1.27-4.31,2-3,1.55-5.38,3.85-7.94,6-1.61,1.17-3.28,2.25-5,3.32-1.88,1.18-3.66,2.51-5.57,3.65-1.07.64-2.16,1.22-3.29,1.76a25.9,25.9,0,0,0-9.47,6.66c-3.38,3.51-6.65,7.13-9.89,10.77-1.78,2-3.55,4-5.25,6.08a44.46,44.46,0,0,0-3.05,4.2c-.59.93-1.08,1.93-1.61,2.9-1.86,3.38-3.93,6.63-5.88,10-2.16,3.72-4.28,7.48-6.18,11.34-.68,1.4-1.36,2.78-2,4.18l-.75-.42a28.31,28.31,0,0,0-3.22-1.33,13.55,13.55,0,0,0-2.68-.62,27.68,27.68,0,0,0-5.22-.45,41.77,41.77,0,0,0-8.71,1.61c-2.46.61-4.93,1.16-7.37,1.84a93.92,93.92,0,0,0-13.95,5.62c-.78.37-1.59.71-2.39,1.06.48-1.32.93-2.65,1.33-4l1.93-6.43c.43-1.44.94-2.87,1.29-4.34.58-2.44,1.17-4.87,1.75-7.31.81-3.37,1.54-6.77,2.15-10.18.34-1.87.71-3.74,1-5.62.18-1.16.35-2.32.53-3.48a28.14,28.14,0,0,0,.6-4,10.57,10.57,0,0,0-.29-3.07,27.2,27.2,0,0,0-1.19-3,8.25,8.25,0,0,0-14.25,0,70.64,70.64,0,0,0-3.15,8.24c-.42,1.48-.79,3-1.16,4.49a8.22,8.22,0,0,0-4.74,1.1c-1.66,1-3.48,2.94-3.79,4.93-.19,1.27-.43,2.52-.7,3.78-.1,0-.2-.07-.3-.09a8.35,8.35,0,0,0-10.15,5.76c-.29.94-.56,1.9-.8,2.86-.85,3.12-1.66,6.26-2.48,9.4a5.08,5.08,0,0,0-.43-.27,8.32,8.32,0,0,0-6.36-.84,8.49,8.49,0,0,0-4.93,3.8c-1.33,2.08-2.64,4.2-3.82,6.37a78.42,78.42,0,0,0-5.72,13.53,88.68,88.68,0,0,0-2.9,10.5,98.56,98.56,0,0,0-1.34,12.48c-.25,4.07-.37,8.14-.49,12.22-.06,1.88-.1,3.76-.18,5.64-.11,2.83-.45,5.65.18,8.44a8.25,8.25,0,0,0,10.15,5.76c1.85-.51,4.13-1.94,4.93-3.79a31.67,31.67,0,0,0,1.64-4.38c.18-.65.32-1.31.47-2,.29-1.42.59-2.83.89-4.24s.61-3,.91-4.55a8.39,8.39,0,0,0,1.76-.75,12.81,12.81,0,0,0,4.87-5.29c.51-1,1-1.94,1.48-2.91a8.4,8.4,0,0,0,5.1,1.79,11.67,11.67,0,0,0,7.13-2.61,38.66,38.66,0,0,0,3.69-3c.72-.7,1.4-1.42,2.08-2.16,2-2.21,4-4.62,4.7-7.62a129.73,129.73,0,0,1,11.47-8.18,68.62,68.62,0,0,1,6.94-3.41c2-.92,4-1.86,5.95-2.74a57.17,57.17,0,0,1,8.21-2.5c2.79-.65,5.56-1.44,8.38-2a16.29,16.29,0,0,1,1.85,0c.35.07.7.15,1,.25a75.94,75.94,0,0,1,2.17,9.62c.26,1.33.54,2.64.81,4-.06.67-.13,1.34-.2,2-.4,2.86-.75,5.72-1,8.62s-.33,6-.47,8.94c-.12,2.63-.34,5.27-.34,7.91,0,3.16,0,6.32.07,9.47a8.26,8.26,0,0,0,12.42,7.13,8.06,8.06,0,0,0,3.79-4.93,59,59,0,0,0,.6-8.09c.11-2,.25-4,.4-5.94.11-1.6.25-3.19.34-4.78a5.82,5.82,0,0,0,1.31-1.76,9.57,9.57,0,0,0,1.19-4.31,8.36,8.36,0,0,0,0-1l-.09-1.54c-.08-1.32-.18-2.64-.29-4-.25-2.91-.66-5.81-1.16-8.69.06-.56.11-1.12.16-1.69.24-2.77.4-5.53.69-8.29a31.3,31.3,0,0,1,1.62-5.53,176.72,176.72,0,0,1,8.84-17.28c1.65-2.83,3.41-5.59,5-8.43,1.39-2.42,2.65-4.87,4.22-7.16,2.83-3.41,5.81-6.68,8.78-10a95,95,0,0,1,7.55-7.87,58.28,58.28,0,0,1,5.71-3,57.09,57.09,0,0,0,6.11-3.86c2-1.38,4.19-2.58,6.16-4.06,1.46-1.1,2.86-2.25,4.25-3.41a8.12,8.12,0,0,0,3,.56,8.5,8.5,0,0,0,5.84-2.41,59.05,59.05,0,0,0,5.83-6.7c1.23-1.54,2.42-3.11,3.62-4.67.66-.86,1.3-1.73,1.89-2.64a16.92,16.92,0,0,0,1.19-2.32,23.51,23.51,0,0,0,1.08-2.66c.14-1,.26-1.93.38-2.9a8.23,8.23,0,0,0-4.09-7.12A7.9,7.9,0,0,0,279.05,91a9.08,9.08,0,0,0-4.26,1.11ZM186,190.91h0a1.13,1.13,0,0,0,.1.13l-.1-.13Z"/><path class="cls-1" d="M186,87.24a8.68,8.68,0,0,0-2.41,5.83c-.11,1.44-.22,2.87-.37,4.3a20.14,20.14,0,0,1-.57,2.32,39.18,39.18,0,0,1-3.21,5.21c-.4.48-.8.95-1.21,1.41a9,9,0,0,0-2.19.31,8.29,8.29,0,0,0-3.64,2.12,16.53,16.53,0,0,0-2.21,2.65l1.06-1.36a63.29,63.29,0,0,0-5.44,8.29,95.88,95.88,0,0,0-4.39,9.42c-.27.41-.53.82-.8,1.22q-.93,1.41-1.74,2.88a45.6,45.6,0,0,0-3.76,9.51c-.78,2.68-1.42,5.4-2,8.11a125.26,125.26,0,0,0-2.75,16.88c0,.34-.05.69-.07,1-.47.34-.93.71-1.43,1.12a9.91,9.91,0,0,0-2.44,4,10,10,0,0,0-1.91,5.57,9.56,9.56,0,0,0,4.45,8.37,7.08,7.08,0,0,0,2.7,1.1l2.2.3c.88-.1,1.76-.22,2.63-.37a2.41,2.41,0,0,0,.35-.07,8.89,8.89,0,0,0,3.81.92,8.25,8.25,0,0,0,7.12-4.09,9.4,9.4,0,0,0,1.16-3.71,31.79,31.79,0,0,0,4-3.55c.24.51.49,1,.74,1.51a11.61,11.61,0,0,0,1,1.63,13.12,13.12,0,0,0,3.4,3.41,11.61,11.61,0,0,0,7.25,2.23,15.37,15.37,0,0,0,1.78.77,7.39,7.39,0,0,0,3.06.43l2.19-.29a8.29,8.29,0,0,0,3.64-2.12c1.83-1.52,2.59-3.69,3.43-5.83a26.62,26.62,0,0,0,1.43-6.11c0-.1,0-.2.05-.31a7.25,7.25,0,0,0,.93.05c4.19,0,7.48-2.82,9.47-6.27a37.4,37.4,0,0,0,2.61-6.26c.83-2.3,1.5-4.65,2.19-7l1.5.18c.36,0,.71.06,1.06.07a15.13,15.13,0,0,0,3.62-.41,16.1,16.1,0,0,0,2.77-1.09,16.65,16.65,0,0,0,2.86-2.16,9,9,0,0,0,2.51-6.93,8.42,8.42,0,0,0-.14-1.52,8.57,8.57,0,0,0,.45-2.69,8.22,8.22,0,0,0-1.13-4.16c-1-1.66-2.94-3.5-4.93-3.79-.8-.12-1.59-.23-2.39-.32a10.73,10.73,0,0,0-1.84.2l-.66,0c-.52-.26-1.05-.52-1.59-.76a7.78,7.78,0,0,0-2.39-5.25c-.61-.5-1.23-1-1.87-1.45l-2.74-1.16-1-.33a13.47,13.47,0,0,0-4.8-.87h-.33a9.21,9.21,0,0,0-1.59-.1,8.24,8.24,0,0,0-4.16,1.12q-.63.45-1.23.93l-.06-.34c-.21-1.17-.45-2.32-.68-3.47a27,27,0,0,0-1.94-5.48,5.44,5.44,0,0,0-.78-1.25,42.63,42.63,0,0,0,3.66-7.15,23,23,0,0,0,1.17-5.87c.24-1.89.4-3.79.54-5.7a8,8,0,0,0-2.42-5.83,8.24,8.24,0,0,0-11.67,0Z"/><path class="cls-1" d="M264.11,57.52l-.33.09a8.28,8.28,0,0,0-3.87,1.11,19.48,19.48,0,0,0-5.37,4.44c-.68.85-1.34,1.71-2,2.58a8.55,8.55,0,0,0-3.67-.57,8.21,8.21,0,0,0-1.38-1,8.32,8.32,0,0,0-6.36-.83l-2,.83a8.23,8.23,0,0,0-3,3c-2,2.62-3.92,5.28-5.82,8-.22-.15-.44-.3-.67-.43l-2-.83a8.18,8.18,0,0,0-4.39,0,7.75,7.75,0,0,0-4.11,2.53,10.5,10.5,0,0,0-2,3.23l-.3.67c-.73,1.13-1.52,2.23-2.24,3.35q-2.08,3.22-4.16,6.48c-1.18,1.84-2.36,3.68-3.51,5.54-.9,1.47-1.81,2.93-2.71,4.39-1.48,2.42-3.09,4.94-3.74,7.73a8.62,8.62,0,0,0,1.67,7.53c-.06.18-.11.35-.15.5a10.89,10.89,0,0,0-.47,2.84c.11.93.24,1.85.38,2.78a8.25,8.25,0,0,0,5.76,5.76,8,8,0,0,0,1.75.28,8.25,8.25,0,0,0,8,2.08,9.89,9.89,0,0,0,3.43-1.16,25.9,25.9,0,0,0,3-2.23l2.13-1.61,1.67-1.29a8.24,8.24,0,0,0,2-8.47,15.6,15.6,0,0,0,3-1.26,10.1,10.1,0,0,0,2.19-1.71,9.07,9.07,0,0,0,4.59-1.64,8.56,8.56,0,0,0,7.35-.48,12.19,12.19,0,0,0,3.14-2.16c.26-.28.52-.56.76-.86a8.23,8.23,0,0,0,2.91-.26,34.18,34.18,0,0,0,3.38-1.52,13.45,13.45,0,0,0,4.08-4.18,37.89,37.89,0,0,0,2.93-4.79q1.15-2.32,2.24-4.66c.38-.83.74-1.67,1.07-2.52a8.76,8.76,0,0,0,2.22-.92,11.37,11.37,0,0,0,4.68-6,11.56,11.56,0,0,0,1.08-1.4,12.36,12.36,0,0,0,1.48-3.78,26.49,26.49,0,0,0,.7-6.22,18.89,18.89,0,0,0-.46-4,12.52,12.52,0,0,0-2.94-5.77A8.44,8.44,0,0,0,272,58.91a15.9,15.9,0,0,0-3-1.4,5.84,5.84,0,0,0-2.08-.31,12.08,12.08,0,0,0-2.78.32Zm-61.05,46.09-.18.23.18-.23Zm-.37.47h0c-.31.39-.61.79-.92,1.19l.92-1.2Z"/><path class="cls-1" d="M237.87,125.8q-1.22,2.08-2.38,4.2a60.25,60.25,0,0,0-4.39,10.41c-.19.59-.38,1.18-.55,1.77a8.26,8.26,0,0,0-9.8-1.11l-1.67,1.29A8.21,8.21,0,0,0,217,146a27,27,0,0,0-1.49,6.61,8.37,8.37,0,0,0-3.29,2,8.76,8.76,0,0,0-2.42,5.83c-.34,4-.59,8.08-.83,12.12-.29,3.56-.61,7.12-.94,10.68a9.32,9.32,0,0,0-.92-1.06,8.26,8.26,0,0,0-13.36-2.46l-1.29,1.67a8.25,8.25,0,0,0-1.12,4.17c-.59,5.41-.78,10.87-1,16.31q-.18,3.44-.33,6.87l-.17.31h0a8.3,8.3,0,0,0-8,6.06,99.06,99.06,0,0,0-1.9,13.41c-.28,2.6-.5,5.21-.7,7.81q-.58,8-.75,15.95c-.23,10.75-.24,21.5-.24,32.24,0,5.38,0,10.76-.25,16.14s-.43,11-.51,16.54c-.09,5.33-.11,10.66-.44,16-.16,2.59-.48,5.18-.73,7.77s-.35,5.17-.49,7.76c-.56,10.84-1.51,21.65-1.95,32.5-.44,10.54-.39,21.09-.38,31.63,0,5,0,10.05,0,15.07a63.53,63.53,0,0,0,.81,9,20.27,20.27,0,0,0,2,6.51,13.17,13.17,0,0,0,4.38,5,10,10,0,0,0,8,1.33,13.82,13.82,0,0,0,1.69-.67,8.13,8.13,0,0,0,2,3.18,8.25,8.25,0,0,0,3.64,2.13,8.38,8.38,0,0,0,4.39,0,8.25,8.25,0,0,0,3.64-2.13,12.49,12.49,0,0,0,1.74-2,17.32,17.32,0,0,0,1.37,1.86,12.72,12.72,0,0,0,5.58,3.6,12.26,12.26,0,0,0,7.46.25,14,14,0,0,0,5.79-3.57l.45-.59.16-.16a8,8,0,0,0,5.74,2.3,8.25,8.25,0,0,0,4.17-1.12,8.48,8.48,0,0,0,3-3c2.24-3.1,1.71-7.4,1.65-11q-.06-3.63-.19-7.26c-.18-4.74-.72-9.43-1-14.16-.31-5.33-.77-10.63-1.28-15.95-.48-5.11-1-10.26-1.19-15.38-.24-5.45-.29-10.9-.45-16.34s-.42-11.09-.69-16.64-.45-10.93-.71-16.4c-.24-5-.61-10-.93-14.92a8.07,8.07,0,0,0,7-2.37,10.3,10.3,0,0,0,1.68-2.37,12.9,12.9,0,0,0,1.29-4.89c.06-.67.12-1.36.13-2,0-1.3,0-2.6-.08-3.91-.11-2.82-.23-5.66-.35-8.48Q244,290,244,282.19c0-10.85,0-21.69.05-32.54q0-6.42.19-12.83a9.17,9.17,0,0,0,1.77-5.1,36.33,36.33,0,0,0-.2-5.31c-.07-1.11-.14-2.22-.2-3.34q-.21-3.57-.34-7.15c-.09-2.34-.15-4.68-.2-7l-.06-3.62a13.33,13.33,0,0,0-.21-3.75,9.34,9.34,0,0,0-1.55-3.22c0-.49-.05-1-.07-1.46-.22-5.25-.09-10.52,0-15.77s.07-10.66.43-16c.2-3.05.44-6.08.75-9.12.36-2.08.76-4.13,1.27-6.19a72.84,72.84,0,0,1,2.64-8.39c1.15-2.49,2.5-4.89,3.89-7.26a8.32,8.32,0,0,0-3-11.29,8.09,8.09,0,0,0-4.1-1.1,8.36,8.36,0,0,0-7.19,4.06Z"/><path class="cls-1" d="M373.84,14.37l.56-.08-2.06.3a22.58,22.58,0,0,0-2.33.11q-4.33.42-8.63,1.22c-2.45.45-4.87,1-7.34,1.37l-3.59.49a56,56,0,0,0-9.63,1.81,99.91,99.91,0,0,0-9.4,3.5l1.58-.67a33.79,33.79,0,0,0-7.7,4,84.53,84.53,0,0,0-6.79,5.75c-4.14,3.91-6.67,9-8.36,14.41a22.94,22.94,0,0,0-.74,3.34,23.2,23.2,0,0,0-.32,6.49,27,27,0,0,0,.91,4.9,11.53,11.53,0,0,0,1,2.25c-.13,1-.25,2-.33,3.07a69.05,69.05,0,0,0-.29,7.61c.08,2.77.16,5.54.32,8.3s.39,5.28.55,7.93c.32,5.13.43,10.26.81,15.39.75,10.33.66,20.69.73,31,.05,5.3.5,10.59.68,15.89.09,2.56.08,5.13.27,7.69s.39,5.35.52,8,.25,5.44.16,8.17c-.09,2.49-.22,5-.3,7.47-.18,5.26-.26,10.51-.29,15.77-.06,11-.06,22-.06,33,0,3.93.16,7.82.43,11.74s.58,7.95.83,11.93.38,7.72.67,11.57c.18,2.42.42,4.84.83,7.23.29,1.67.62,3.32.9,5,.6,5,1.13,9.93,1.79,14.88l-.2-1.52c.47,4.29.86,8.6,1.34,12.89s1,8.61,1.68,12.9c1,10.25,1.1,20.6,1.21,30.88.06,5.28.46,10.54.71,15.81.24,4.85.7,9.69,1.27,14.51s1.06,9.76,1.29,14.66c.12,2.6.25,5.21.43,7.81s.5,5.47.85,8.2l-.09-.69A122.11,122.11,0,0,0,330,425a8.25,8.25,0,0,0,15.91-4.39,90,90,0,0,1-1.67-9.67l-.33-2.46c-.56-5.23-.74-10.48-1-15.73-.28-4.9-.86-9.8-1.47-14.67s-.84-9.81-1.08-14.71c-.14-2.72-.39-5.43-.49-8.15-.09-2.48-.09-5-.13-7.46-.1-6.41-.29-12.82-.53-19.23-.1-2.93-.31-5.85-.61-8.77s-.79-5.83-1.22-8.75c-.86-7.24-1.45-14.51-2.42-21.73l.29,2.19c-.36-3.25-.72-6.5-1.11-9.75-.31-2.52-.64-5-1-7.54-.2-1.18-.45-2.35-.65-3.52-.44-4.89-.62-9.8-.92-14.7-.36-5.63-.82-11.25-1.15-16.88-.16-2.7-.08-5.41-.08-8.11v-7.38c0-5.67,0-11.34,0-17,0-5.23,0-10.47.13-15.71s.36-10.5.54-15.76c.09-2.49-.12-5-.26-7.5-.15-2.71-.39-5.42-.52-8.13-.26-5.32-.37-10.64-.69-16-.14-2.35-.2-4.7-.22-7.06a8.24,8.24,0,0,0,5.08-5.54,61.69,61.69,0,0,0,.56-11.45c0-2.56-.3-5.13-.52-7.68-.4-4.72-.78-9.44-1.18-14.16-.15-4.91-.05-9.82,0-14.73.06-5.11.15-10.25.57-15.34q.24-2.88.56-5.74A23.81,23.81,0,0,1,335.59,57c.18-.46.37-.92.55-1.37a44.56,44.56,0,0,1,4.12-7.27,35.78,35.78,0,0,1,4.15-4.2c2.35-1.71,4.76-3.34,7.15-5a60.62,60.62,0,0,1,8.36-4.69A74.61,74.61,0,0,1,373,31.09c1.58,0,3.18.12,4.77.27l.85.15c1,.17,1.88.53,2.82.76,1.4.35,2.81.69,4.19,1.11l.05.09a31.38,31.38,0,0,1,1.22,4.88c.17,1.7.31,3.39.42,5.1.07,1,.12,2,.16,3,.11,2.42.09,5,1.45,7.08a8.43,8.43,0,0,0,4.93,3.79,8.25,8.25,0,0,0,8-2.12,11.83,11.83,0,0,0,2.93-6.18c.16-.83.35-1.65.49-2.48.44-2.5.78-5,1-7.56a50.72,50.72,0,0,0,.3-5.51,35.5,35.5,0,0,0-.88-7,10.22,10.22,0,0,0-.62-1.84,16.55,16.55,0,0,0-6.15-8c-.52-.39-1-.75-1.59-1.09a20.18,20.18,0,0,0-9.8-2.62l-1.13,0c-4.23,0-8.43.86-12.61,1.44Z"/><path class="cls-1" d="M388.7,35.93a8.33,8.33,0,0,0-5.76,10.14c.64,2.36,1.18,4.7,1.65,7.09.53,4.58.86,9.17,1,13.8.14,5.68.18,11.38.21,17.07,0,5.13-.06,10.27.06,15.4.13,5.34.62,10.67,1.08,16,.41,4.84.45,9.7.82,14.53.34,4.56.53,9.12.67,13.68.14,5,.14,9.92.2,14.88A124.72,124.72,0,0,0,389.72,174l-.29-2.19c.1.9.22,1.8.35,2.69a11.12,11.12,0,0,0,1.29,3.08,8.1,8.1,0,0,0,4.26,3.56c.94,8.68,1.8,17.52,5.1,25.66.28.66.56,1.31.83,2a8.25,8.25,0,0,0,14.25,0c1-1.72,1.62-4.42.83-6.35A72.35,72.35,0,0,1,412.46,187c-.54-4.43-.95-8.88-1.53-13.31-.31-2.43-.57-4.87-.81-7.32-.26-2.61-.24-5.26-.28-7.87-.07-5.35-.14-10.69-.29-16-.14-5.08-.58-10.16-.6-15.25-.05-10.92,0-21.84-.24-32.76q-.16-8.49-.58-17c-.25-5.14-.52-10.32-1-15.45-.14-1.62-.31-3.23-.51-4.84,0-.18,0-.36-.07-.54-.07-1.56-.13-3.14-.32-4.69a8.2,8.2,0,0,0-4.09-7.12,8,8,0,0,0-2.76-1c-.18-.73-.37-1.45-.57-2.18a8.33,8.33,0,0,0-8-6,7.88,7.88,0,0,0-2.14.29Z"/><path class="cls-1" d="M372.69,47l-.12,0a9.85,9.85,0,0,0-4.88,2.45,11.73,11.73,0,0,0-6.64,7.4c-1.13,3.71-2.21,7.42-3.2,11.16-.42,1.59-.81,3.2-1.15,4.81s-.48,3-.68,4.57a14.52,14.52,0,0,0-.15,3.29,15.71,15.71,0,0,0,1.93,6.81A11.92,11.92,0,0,0,365,92.89q-.09,7.69-.13,15.39c0,5.63-.07,11.26.25,16.88a260.42,260.42,0,0,0,3.83,33.78c1,5.23,2,10.44,2.84,15.68.83,5,2,10,3.08,15a106.58,106.58,0,0,0,5.53,17.51,53.68,53.68,0,0,0,2.85,6.16c.73,1.3,1.6,2.53,2.44,3.77a56.15,56.15,0,0,1,4,6.58l0,.11a11.82,11.82,0,0,0,5.17,6.72,11.24,11.24,0,0,0,15.39-4,11,11,0,0,0,1.13-8.67,47.16,47.16,0,0,0-5.74-11.3,51.76,51.76,0,0,1-4.28-7.09,85.89,85.89,0,0,1-4-12.09c-1.12-4.78-2.27-9.56-3.19-14.39s-1.65-9.86-2.57-14.77c-.79-4.23-1.61-8.43-2.24-12.68a245.23,245.23,0,0,1-2.07-30.52c.05-11.33.14-22.65.39-34,.08-3.3.22-6.6.38-9.9.11-2,.23-4,.29-6.06,0-1.24.06-2.48.1-3.72,0-.58,0-1.16.07-1.74a14.72,14.72,0,0,0-.41-3.73,13.86,13.86,0,0,0-1.53-4A11.27,11.27,0,0,0,372.69,47Z"/><path class="cls-1" d="M488.55.43c-3,.28-6.06.7-9,1.27-1.82.35-3.61.77-5.42,1.09s-3.39.29-5.09.41a88.15,88.15,0,0,0-9.85,1.28c-1,.19-2,.44-3,.73a23.64,23.64,0,0,0-7.52,3.38,60.18,60.18,0,0,0-7.23,6.2,16.46,16.46,0,0,0-4.73,12.65c.06,1.25.2,2.49.21,3.75,0,2.54,0,5.08,0,7.62,0,5.07.06,10.13.2,15.19.15,5.27.55,10.52.82,15.79s.26,10.33.63,15.5c.19,2.57.61,5.12.8,7.68s.36,5.37.39,8c.06,5.37.1,10.74.24,16.11.07,3,.21,6.06.5,9.07.3,3.27.8,6.51,1.28,9.75s.77,6.61.94,9.94c.21,4,.21,7.92.61,11.86A122.12,122.12,0,0,0,445.63,172c.78,3.52,1.42,7,2,10.59a61.1,61.1,0,0,1,.25,10.39,34.46,34.46,0,0,1-1.6,4.82c-.88,1.8-1.9,3.51-2.91,5.26-.79,1.37-1.61,2.73-2.49,4-.36.4-.74.77-1.12,1.14l-.5.29a32.09,32.09,0,0,1-4.73,1l1.67-.23c-2.21.3-4.41.65-6.61,1a31.16,31.16,0,0,1-4.53.2,23.72,23.72,0,0,1-2.6-.69,19.39,19.39,0,0,1-1.7-1,29.6,29.6,0,0,1-2.9-2.92c-1.72-2.44-3.34-4.94-5.15-7.32a44,44,0,0,1-4.66-7.37,80.2,80.2,0,0,1-3.73-12.29q-1.19-5.66-2.3-11.32c0-.36,0-.72,0-1.08-.19-5.65-.31-11.29-.43-16.94-.11-5.23-.38-10.46-.62-15.68-.1-2.3-.23-4.63-.53-6.93a51.22,51.22,0,0,0-1.09-6.42c-.3-1.1-.61-2.21-.92-3.32-.68-2.44-1.47-4.86-2.29-7.25-.39-1.14-.8-2.27-1.15-3.42-.71-2.35-1.11-4.85-2.56-6.9a11.44,11.44,0,0,0-4-4,11.24,11.24,0,0,0-11.36,0c-2.3,1.34-4.72,4-5.17,6.72a42.57,42.57,0,0,0-.75,7c0,1.09.06,2.18.13,3.26.12,1.8.23,3.6.35,5.41.18,2.73.49,5.46.75,8.19.34,3.64,1,7.28,1.46,10.91.37,2.68.86,5.35,1.31,8,1.38,8.27,2.93,16.52,4.54,24.76.06,1.06.13,2.11.22,3.17.43,5.43,1,10.84,1.47,16.27.3,3.73.61,7.42,1.1,11.14a11.1,11.1,0,0,0-3.91,2.54,11.29,11.29,0,0,0-3.3,7.95c.14,1,.27,2,.4,3a11.28,11.28,0,0,0,2.9,5c2.43,3.08,4.76,6.36,7.68,9,4.47,4,10.22,7.86,16.08,9.37.78.2,1.57.37,2.37.52a36.22,36.22,0,0,0,13.18,2.92,46.73,46.73,0,0,0,4.88-.2c1.55-.14,3.09-.22,4.63-.35l.32,0v-.05c1-.09,2-.19,3-.35a11.17,11.17,0,0,0,5-2.89,11.32,11.32,0,0,0,3-5.46A34.46,34.46,0,0,0,446,230a39.4,39.4,0,0,0,3.89-1.64,24.4,24.4,0,0,0,4.56-3.12,18,18,0,0,0,2.88-2.78,66.65,66.65,0,0,0,5.37-7.8,62,62,0,0,0,3.5-6.46c1.51-3.38,3.21-7.1,3.72-10.79a58.11,58.11,0,0,0,.58-10.7,115,115,0,0,0-2.49-17.8c-.66-3.25-1.45-6.45-2-9.72-.5-4.86-.59-9.72-.85-14.61-.28-5.45-1.14-10.85-1.92-16.25-.53-4.78-.73-9.58-.81-14.39-.1-5.41,0-10.84-.25-16.24s-1-10.57-1.33-15.88-.3-10.73-.63-16.09c-.4-6.51-.66-13-.74-19.54q0-5.14-.07-10.29c0-1.57,0-3.15,0-4.72,0-.8-.07-1.6-.13-2.41.53-.47,1.06-.92,1.61-1.37l.35-.22A38.66,38.66,0,0,1,466.39,26c2.91-.29,5.83-.4,8.73-.77,2.68-.35,5.32-.71,8-1.29,1.53-.33,3.06-.63,4.6-.89a58.42,58.42,0,0,1,8.36-.46l0,0c1.12,1,2.19,2,3.3,2.95.91.8,1.87,1.55,2.81,2.31.45,2.1.67,4.26.95,6.38l-.33-2.51c1.32,10.61,1,21.29,1.57,31.94.29,5.12.82,10.18,1.36,15.28.59,5.52.86,11.06,1.24,16.6q.54,7.82.73,15.65c.13,5.39.06,10.78.31,16.17.25,5.23.52,10.47.65,15.72.15,5.5.55,11,.79,16.51.12,2.72.17,5.45.24,8.17.07,2.49.3,5,.41,7.46.25,5.5.41,11,.53,16.51.11,5.27.35,10.52.6,15.79.27,5.49.72,11,1,16.47s.29,10.78.37,16.16.35,10.71.61,16.07.73,10.7.95,16.07c.22,5.16.43,10.32.66,15.49.48,10.82.56,21.66,1.41,32.46.84,10.62,1.87,21.22,2.76,31.83.44,5.23.86,10.43,1,15.68s.21,10.58.24,15.87,0,10.55.06,15.83.13,10.43-.06,15.63c-.06,1.77-.25,3.54-.37,5.32-.1,1.39-.18,2.78-.31,4.17a65,65,0,0,1-1.84,9,60,60,0,0,1-6.78,1.43,52.31,52.31,0,0,1-8.85-.06,53.74,53.74,0,0,1-7.27-1.84c-2.75-.9-5.52-1.73-8.25-2.7s-5.41-2.28-8.24-3.12c-2.52-.75-5.08-1.39-7.57-2.24-.83-2.46-1.35-5.05-1.93-7.56-.54-2.31-.93-4.64-1.34-7-.73-6.31-1.09-12.65-1.54-19-.26-3.73-.5-7.47-.87-11.19-.43-4.33-1.09-8.64-1.74-12.95-1.12-9-2-18-3.07-27-.63-5.41-1.54-10.78-2.33-16.17-.61-4.1-1.26-8.19-1.88-12.28-.51-4.85-.83-9.7-1.2-14.56A138.22,138.22,0,0,0,452,279.1c-.49-2.36-1.15-4.69-1.73-7s-1.2-4.84-1.9-7.25a43.8,43.8,0,0,0-2.19-5.57,24.18,24.18,0,0,0-4.09-6c-3.34-3.81-8.48-5.81-13.34-6.85a46.81,46.81,0,0,0-17.3-.09,29.33,29.33,0,0,0-3.47.74,18.14,18.14,0,0,0-10.51,8.39,39.71,39.71,0,0,0-3.2,7.54,57.71,57.71,0,0,0-2.52,14.48c-.28,3.46-.69,6.91-1.11,10.35a143.35,143.35,0,0,0-1.72,16.53c-.18,5.65-.26,11.29-.33,16.94-.14,10.78-.08,21.58-.08,32.37,0,11.38-.61,23,1.87,34.19.53,2.41,1.27,4.78,1.92,7.15s1.28,4.83,1.88,7.25c1.26,5,2.3,10,3.22,15.11.23,1.26.44,2.52.63,3.79q.45,3.74.94,7.49c0-.35-.1-.69-.14-1a40.43,40.43,0,0,1,.31,7.37,33,33,0,0,1-1.31,4.67c-.29.59-.6,1.16-.94,1.72a75.12,75.12,0,0,1-8.48-.54,86.66,86.66,0,0,0-9.67-.37c-3.1,0-6.16-.07-9.26-.24-1.65-.09-3.31-.21-5-.15l-1,.05c0-.17-.07-.34-.1-.51-.27-2.76-.36-5.55-.43-8.33s-.13-5.82,0-8.73c.25-6.13-5.31-11.25-11.25-11.25a11.25,11.25,0,0,0-8,3.3,11.54,11.54,0,0,0-3.29,8c-.19,4.71,0,9.42.21,14.12a66,66,0,0,0,1.18,9.72,26.13,26.13,0,0,0,1.19,4.26,27.83,27.83,0,0,0,2.38,5.17,15.71,15.71,0,0,0,13.3,7.38,14.07,14.07,0,0,0,1.57-.21l1.47-.2a54.36,54.36,0,0,1,8.84,0c1.88.11,3.78.22,5.67.19,2.41,0,4.81-.09,7.21,0,2.56.09,5.09.38,7.64.63a39.67,39.67,0,0,0,12.3-.48c3.44-.75,6.29-3,8.85-5.28a25.08,25.08,0,0,0,3.63-4.48,21.74,21.74,0,0,0,1.54-2.75,54.56,54.56,0,0,0,2.37-5.82,39.89,39.89,0,0,0,1.83-9.75,48,48,0,0,0-.83-11.26c-.55-4.45-1.09-8.88-1.89-13.29-.72-3.93-1.5-7.84-2.45-11.72q-1.35-5.52-2.83-11c-.85-3.12-1.66-6.18-2.22-9.34-.42-5-.43-9.95-.43-14.94V347.23c0-10.62-.05-21.24.15-31.86.13-6.69.22-13.35.94-20,.55-3.8,1.07-7.6,1.5-11.41.35-3.12.58-6.24.9-9.36a42.14,42.14,0,0,1,1.71-6.37l.34-.06a39.35,39.35,0,0,1,6.33,0,28.75,28.75,0,0,1,3,.78c.15.25.29.5.42.76,1.43,4.05,2.22,8.34,3.33,12.49a113.88,113.88,0,0,1,2.47,12.08c.33,3.48.48,7,.77,10.45.4,4.82,1,9.6,1.68,14.38,1,6.79,2.11,13.56,3.11,20.34q1.05,9.18,2.05,18.36c.75,6.85,1.7,13.67,2.67,20.5.5,5.07.86,10.15,1.22,15.23.38,5.39.56,10.85,1.28,16.21a139.87,139.87,0,0,0,3.3,18.06,47.74,47.74,0,0,0,3,8.22,19.6,19.6,0,0,0,8.77,8.71,47.39,47.39,0,0,0,9.47,3.35,75.39,75.39,0,0,1,7.56,2.54c2.22.9,4.45,1.76,6.74,2.49s4.61,1.5,6.92,2.21a59.89,59.89,0,0,0,9.67,1.89,51.63,51.63,0,0,0,7.76.43,64.51,64.51,0,0,0,10-1.16,46.75,46.75,0,0,0,6.91-1.59,23.55,23.55,0,0,0,8.51-4.49c2.7-2.41,4.13-5.84,5.39-9.15a34,34,0,0,0,1.81-6.88c.52-3.34,1.16-6.68,1.45-10,.44-5,.71-9.94.71-14.93,0-10.39,0-20.77-.1-31.16-.07-5.34-.11-10.69-.41-16-.32-5.58-.89-11.15-1.32-16.73-.38-5-.92-9.93-1.36-14.9-.48-5.37-.9-10.73-1.22-16.11-.65-11-.83-21.94-1.36-32.9-.26-5.32-.36-10.64-.69-15.95s-.68-10.83-1-16.26c-.55-10.74-.27-21.5-1-32.23-.37-5.22-.64-10.43-.91-15.65s-.25-10.33-.41-15.49c-.17-5.51-.46-11-.73-16.51-.26-5.26-.31-10.54-.61-15.8-.15-2.68-.36-5.36-.44-8s-.11-5.35-.23-8c-.23-5.34-.56-10.67-.63-16q-.09-8.34-.37-16.67c-.18-5.13-.61-10.24-.93-15.36-.17-2.75-.29-5.52-.58-8.26s-.64-5.41-.9-8.11c-.48-5.13-.92-10.29-1-15.44-.09-5.39-.13-10.79-.42-16.17a166.34,166.34,0,0,0-2-18.23c-.14-.87-.3-1.73-.5-2.6a22.39,22.39,0,0,0-1.56-4.07,13.41,13.41,0,0,0-2.49-3.5c-.89-.81-1.82-1.57-2.76-2.33-1.81-1.49-3.51-3.08-5.3-4.6-1.15-1-2.37-1.88-3.58-2.79a19.62,19.62,0,0,0-4.43-2.18A22.79,22.79,0,0,0,495.81,0c-.38,0-.76,0-1.15,0-2,0-4.1.24-6.11.43Zm13.36,26.41,0,0h0l0-.05Zm-87.1,241.69-.17.13.17-.13Z"/><path class="cls-1" d="M377.46,21.13a15,15,0,0,0-3.61,1.5A12.44,12.44,0,0,0,369.49,27c-1.24.32-2.47.66-3.68,1.06-2.08.68-4.09,1.53-6.2,2.16a41.39,41.39,0,0,1-5,1.1c-1.43.16-2.85.3-4.27.48-1.95.23-3.89.48-5.82.85-.82.17-1.63.36-2.43.61a37.57,37.57,0,0,0-3.78,1.56,14.43,14.43,0,0,0-3.5,2.52A20.45,20.45,0,0,0,332,41.24c-.56,1.18-1,2.38-1.54,3.58-.42,1-.78,2-1.13,3.07-.64,1.84-1.18,3.71-1.65,5.6a49.84,49.84,0,0,0-1.3,15.15c.2,3.07.56,6.09,1,9.12.24,1.73.79,3.38,1.18,5.08a124.51,124.51,0,0,1-.25,13.66c-.21,5.24-.51,10.45-.56,15.69s-.12,10.66-.29,16-.47,10.66-.5,16c-.05,10.66,0,21.32.19,32,.24,11,.68,22,.61,33,0,5.42-.05,10.84-.17,16.26-.11,5.23-.21,10.49-.76,15.68-.28,2.6-.52,5.18-.61,7.79s.12,5.51.27,8.26c.29,5.21.89,10.37,1.59,15.54.21,2,.39,4.06.42,6.11,0,2.26-.08,4.51-.19,6.77-.2,3.93-.57,7.84-1,11.74A160.35,160.35,0,0,0,325.1,314c-.3,5.24-.36,10.48-.6,15.73-.51,11.29-1.45,22.55-2.39,33.82-.66,7.92-.89,15.87-.8,23.82,0,3.66.14,7.33.36,11,.25,4.27.89,8.5,1.48,12.74.32,2.4.64,4.79,1,7.18,0,.32-.07.64-.08,1-.19,4-.08,8-.08,11.92,0,3.62.28,7.22.49,10.83.26,4.57.57,9.35,2.09,13.7.46,1.1.93,2.22,1.41,3.33a17.26,17.26,0,0,0,2.43,3.43,11.65,11.65,0,0,0,1.61,1.75c5.2.18,10.4.18,15.6.17,2.71,0,5.43,0,8.13,0a153.47,153.47,0,0,1,15.89,1.11c2.89.33,5.78.63,8.68.93a84.25,84.25,0,0,0,18.17-.08l3.56-.54c.13-.14.27-.28.4-.43a17.76,17.76,0,0,0,3.8-7.22,41.29,41.29,0,0,0,1.19-11.67c-.08-5.24,0-10.53-.35-15.76-.43-6.33-1.71-12.61-2.77-18.85-1-7.94-1.71-15.9-2.52-23.85-.89-8.92-2.25-17.79-3.5-26.66-.51-5-1.07-10-1.41-15q-.6-8.94-1.13-17.89c-.62-10.6-1.07-21.25-1.28-31.87-.23-11.39.18-22.78.56-34.16.16-5,.32-10.07.63-15.09.32-5.31.66-10.63.76-15.95.11-6.34.16-12.67.35-19,.1-3.56.15-7.14.27-10.72.41-3.54.79-7.09,1-10.63a9.65,9.65,0,0,0-.73-4.08c0-.28,0-.55,0-.82q0-6.14.07-12.26c0-1.88,0-3.75,0-5.63,0-1.21,0-2.42-.05-3.63,0-.82.07-1.62.05-2.44a12.5,12.5,0,0,0-3.92-9.05c-.18-.16-.36-.32-.55-.47q-1.12-11.79-2.27-23.57c-.13-1-.27-2-.4-3a11.26,11.26,0,0,0-10.85-8.27c-.36,0-.72,0-1.07.05a11.28,11.28,0,0,0-6.07-6c.34-2.6.7-5.2,1.06-7.8l-.19,1.41,2.76-16.16c.83-4.85,2-9.65,3-14.46.92-4.35,1.91-8.67,3-13,1.33-5.44,2.56-10.92,4.19-16.28l1.57-.69a7.94,7.94,0,0,0,2.87-2.31l1.76-2.28a17.6,17.6,0,0,0,1.24-3,12.25,12.25,0,0,0-1.71-10.22,13.88,13.88,0,0,0-4.38-4.38,18.73,18.73,0,0,0-3.5-1.58,8.23,8.23,0,0,0-2.93-.43,15.82,15.82,0,0,0-3.5.39ZM363.2,448.92c-1.94-.32-3.89-.53-5.83-.71l-.75-.88c-.86-1-1.76-1.95-2.63-2.93l-.22-.38c0-.06,0-.12,0-.18a24,24,0,0,1,0-3.06c.19-1,.43-1.95.68-2.91a11.16,11.16,0,0,0,5.24-2,11.51,11.51,0,0,0,3.3,2.47,11.21,11.21,0,0,0,2.69,4.32,11.46,11.46,0,0,0,3.7,2.46,1.29,1.29,0,0,0,0,.19c.16,1,.33,1.9.51,2.85a10.88,10.88,0,0,0,.46,2.05c.1.33.2.65.32,1l-1.93,0a13.17,13.17,0,0,0-5.56-2.32Z"/><path class="cls-1" d="M443.94,209.81a10.9,10.9,0,0,0-6.72,5.17c-.16.32-.32.64-.47,1-.22.11-.45.23-.66.36a11.31,11.31,0,0,0-4,4,6.87,6.87,0,0,0-.76,1.31,12.87,12.87,0,0,0-4.37,1,10,10,0,0,0-3.75-1.6,11.44,11.44,0,0,0-6,0,12.35,12.35,0,0,0-2.12.73,12.07,12.07,0,0,0-8.59.42,11.41,11.41,0,0,0-3.55-1.71,11.3,11.3,0,0,0-12.7,5.18,23.81,23.81,0,0,0-1.1,2.34,11.19,11.19,0,0,0-8.32,5.49,17.79,17.79,0,0,0-1.53,3.49,38.77,38.77,0,0,0-.7,5.24c-.11,1.43-.13,2.84-.11,4.27a43.22,43.22,0,0,0,.63,6.51,12.22,12.22,0,0,0,6.61,9.46c4,2.23,9.54,2.06,13-1.1l.85.33a17.35,17.35,0,0,0,3.51.42,11.94,11.94,0,0,0,6.15-1.8,13.77,13.77,0,0,0,4.45-4.47c.06-.07.11-.15.16-.22a11.57,11.57,0,0,0,2.51-.3,11.84,11.84,0,0,0,4.65,2.55,11.65,11.65,0,0,0,8.67-1.14,11.79,11.79,0,0,0,3.43-2.65,12.07,12.07,0,0,0,4.89-.23c.45-.12.9-.26,1.36-.43a11.19,11.19,0,0,0,.65,1.17,11.6,11.6,0,0,0,6.72,5.17,11.33,11.33,0,0,0,8.67-1.13A11.52,11.52,0,0,0,460.3,245c-.18-2.81-.18-5.64-.33-8.44l-.29-5.71c-.06-1.28-.15-2.56-.22-3.83a34.41,34.41,0,0,0-1.68-9.34,11.38,11.38,0,0,0-2.89-5,11.17,11.17,0,0,0-5-2.89,11.38,11.38,0,0,0-6,0Zm13.55,14.43-.2.48a2.55,2.55,0,0,1,.2-.48Zm2.61,20.2v.09h0a.22.22,0,0,1,0-.08Z"/><path class="cls-1" d="M489.55,11.56a18.84,18.84,0,0,0-4,1.57,25.79,25.79,0,0,0-4.28,3.08,11,11,0,0,0-2.18,2.48,11.31,11.31,0,0,0-5.39.14,11.76,11.76,0,0,0-4.8,2.7,10.72,10.72,0,0,0-1.13-1.31,11.19,11.19,0,0,0-5-2.9c-4.67-1.29-10.4.73-12.7,5.17a14.29,14.29,0,0,0-1.47,3.71c-.23,1.22-.36,2.54-.48,3.8-.06.67-.13,1.34-.18,2-.08,1.24-.14,2.47-.21,3.7q-.18,3.13-.54,6.24c-.33,2.36-.66,4.71-1,7.07l.21-1.59c-.48,3.41-1,6.82-1.36,10.25-.28,2.7-.41,5.39-.49,8.1-.16,5.31.05,10.63.2,15.94.15,5.06.57,10.11.66,15.16.1,5.67.21,11.32.44,17,.44,10.5,1.62,21,1.93,31.49.17,5.54-.08,11.08-.31,16.62-.21,5.21-.24,10.41-.22,15.62s.07,10.66.22,16c.08,3.1.32,6.21.49,9.31a11.09,11.09,0,0,0-2.66,3.08c-.38.89-.75,1.79-1.13,2.68a11.28,11.28,0,0,0,0,6c.06.42.13.84.19,1.26.54,4.32,1,8.63,1.22,13q.27,5.36.47,10.71c0,.16,0,.32,0,.49-.43,5.34-.52,10.71-.6,16.07-.08,4.92-.09,9.84-.1,14.76v7a10.6,10.6,0,0,0-2.25,6.74c.72,11.16,2,22.27,3,33.39.95,10.87,2.05,21.7,3.47,32.51.83,6.3,1.56,12.65,2.76,18.89a62.21,62.21,0,0,0,1.89,7.37c.75,2.34,1.5,4.7,2,7.1,1.45,6.54,2.83,13.11,4.45,19.62.34,1.87.68,3.74,1,5.62s.45,3.59.73,5.38a23.36,23.36,0,0,0,.84,4.5l1.14,2.69a11.25,11.25,0,0,0,4,4c.23.13.47.26.72.38a24.88,24.88,0,0,0,7.19,6.56,31.65,31.65,0,0,0,3.32,1.6c1.19.53,2.37,1.08,3.57,1.6a89.28,89.28,0,0,0,9.27,3.48,24.66,24.66,0,0,0,11.86,1,15.11,15.11,0,0,0,9.23-.48,18.94,18.94,0,0,0,4.07-2,21.25,21.25,0,0,0,3-2.43,29.44,29.44,0,0,0,2.7-3.36,19.88,19.88,0,0,0,1.78-3.79,26.35,26.35,0,0,0,1.39-4.85,60.74,60.74,0,0,0,1-8.07c.22-3.4.15-6.85,0-10.25-.13-5.1-.59-10.18-1-15.27-.8-10.75-2.2-21.43-3.13-32.17-.78-8.94-1.77-17.83-3-26.72-.57-4.28-1.11-8.55-1.44-12.85q-.66-8.69-1.52-17.33c-.77-7.79-1.61-15.56-2.35-23.35a10.76,10.76,0,0,0,1.31-1.12,11.74,11.74,0,0,0,3.29-8c.38-5.38.22-10.81.18-16.21,0-5.25-.07-10.52-.16-15.78-.09-5.08-.45-10.14-.65-15.22-.22-5.34-.1-10.7-.1-16,0-21.7.15-43.4-.29-65.09-.21-10.6-1.16-21.16-1.85-31.74-.36-5.4-.63-10.81-.9-16.22s-.35-10.78-.63-16.17q-.36-6.74-.75-13.47c-.33-5.53-1-11-1.77-16.48.14,1,.27,2,.4,3-.77-5.88-1.35-11.79-2.39-17.63a61.52,61.52,0,0,0-1.79-7.59C508.33,21.23,507,18,505,16.12a25.79,25.79,0,0,0-3.25-2.59,19,19,0,0,0-3.78-1.74,13.48,13.48,0,0,0-4.15-.72h0a29.28,29.28,0,0,0-4.17.49Zm8.78,18.94-.32.4.32-.4Zm-.48,1.08-.12.09h0l.12-.08ZM446.21,49.4c0,.34-.1.68-.14,1,0-.35.09-.69.14-1Z"/><path class="cls-1" d="M567.06,30.23a11.35,11.35,0,0,0-3.93-.72,11.54,11.54,0,0,0-9.75,5.61c-2,3.16-1.75,7-1.46,10.6v.13c.06.77.12,1.53.15,2.28.14,2.86.29,5.38.47,7.67.2,2.55.32,5.08.44,7.9v.15c.13,2.62.25,5.32.45,7.94.8,10.18.84,20.47.89,30.42v.44c0,2.63,0,5.25,0,7.88v.24c0,7.77,0,15.81.39,23.72.12,2.44.32,4.95.53,7.52l0,.41v.11l0,.42c.16,2,.35,4.57.47,7,.12,2.54.29,5.09.49,7.92l0,.22c.18,2.68.35,5.18.48,7.7a223,223,0,0,1-.58,31.3l-.21,2.28,0,.17c-.41,4.41-.86,9.34-1.12,14.08-.13,2.36-.14,4.84,0,7.37a83.6,83.6,0,0,0,1.17,9.71l0,.24.05.31c.21,1.26.44,2.52.67,3.77l.07.39.11.61c.17.91.33,1.82.49,2.73.38,2.23.72,4.56,1,6.75l.15,1c.58,4.56,1,8.64,1.35,12.47.49,5.78.68,11.47.8,16.27.11,3.89.14,7.86.17,11.69v.62l0,3.35c0,3.06.17,6.17.31,9.18v.82c.09,1.92.18,3.83.24,5.74.19,5.68.26,11.16.32,16.29,0,.92,0,1.85,0,2.77v1c0,3.16,0,7.49.24,11.49.14,2.71.34,5.4.57,8.39l0,.47,0,.43c.16,2,.31,4,.45,6a84.11,84.11,0,0,1,0,14.64c-.48,4.61-1,9.73-1.46,15.64-.42,4.94-.62,10.14-.6,15.44,0,3.93.39,7.9.74,11.73l0,.23.22,2.27c.43,4.78.55,9.61.64,14.55.05,2.48.18,4.77.37,7,.11,1.1.21,2.19.33,3.29.16,1.41.34,2.91.66,4.43a13.93,13.93,0,0,0,3.56,6.66,10.31,10.31,0,0,0,7.71,3.29l.05.05c4.62-.17,9.23-.33,13.86-.34q8.16,0,16.33,0c5.3,0,10.6-.2,15.9-.31,10.71-.21,21.42-.49,32.13-.63,5.22-.07,10.42-.24,15.64-.46,4.74-.19,9.47-.23,14.21-.3.93,0,1.87,0,2.8-.07a27.42,27.42,0,0,0,3.83-3.09,19.87,19.87,0,0,0,1.73-2l.19-.25a29.79,29.79,0,0,0,3.44-5.17,45.83,45.83,0,0,0,3.81-10,42.75,42.75,0,0,0,.75-12.06c-.21-3.67-.51-7.4-.81-11l0-.21v-.34l-.27-3.32a101.77,101.77,0,0,1-.06-11l.06-1.49c0-1.72.08-3.45.11-5.19v-.46c0-2.7.1-5.48.27-8.21l0-.34v-.11c.11-1.73.24-3.9.22-6a66.28,66.28,0,0,0-.78-9.34l-.45-2.89a13.84,13.84,0,0,0-6.7-9.35,12.69,12.69,0,0,0-6.37-1.77c-.32,0-.64,0-.94.05h-.11a17,17,0,0,0-4.07.74,29,29,0,0,0-3.84,1.69c-.51.28-1,.54-1.54.8a77,77,0,0,1-12.33,2.89l-.16,0-.16,0c-1.88.33-3.81.68-5.68,1.08a47.31,47.31,0,0,0-11.5,4.6,40.28,40.28,0,0,0-4.12,2.33c-.43.28-.85.57-1.27.86l-.25.16c-.5.35-1,.69-1.51,1h-.35a45.12,45.12,0,0,1-4.58-.31l-.39,0-.48,0-1.12-.11c-1.1-.09-2.21-.16-3.32-.23l-.5,0a74.36,74.36,0,0,1-3.25-9.55c-.9-3.63-1.63-7.55-2.4-12.72-.18-1.36-.29-2.52-.35-3.54l.76-.13,2-.35c1.51-.16,3-.29,4.54-.42l.47,0c2.85-.24,6.09-.5,9.2-1A50.19,50.19,0,0,0,650,330.81a30.24,30.24,0,0,1,5.3-1.5c.72-.06,1.61-.09,2.7-.09s1.95,0,2.94.06l.77,0c.73,0,1.47.06,2.21.06h.55a43.82,43.82,0,0,0,5.19-.57l.13,0h.1l.91-.14c2.46-.38,4.66-2.09,6.7-3.82a8.37,8.37,0,0,0,1.17-1.29c.65-.83,1.29-1.66,1.93-2.5l.21-.27a14.37,14.37,0,0,0,1.65-3.4l.24-.62c.29-.72.52-1.5.71-2.12l0-.13.08-.25A61.4,61.4,0,0,0,684.9,308l0-.2.15-.77c.33-1.72.57-3.45.84-5.38l0-.24c.08-.6.16-1.2.25-1.8l.08-.54a48,48,0,0,0,.72-9.65,39.26,39.26,0,0,0-1.82-9.57c-.33-1.06-.71-2.13-1.05-3.13l-.08-.21-.14-.38-.1-.29c-.41-1.15-.82-2.34-1.19-3.52l-.19-.64-.05-.14-.11-.4-.09-.29-.1-.33-.17-.57a32.6,32.6,0,0,0-1.81-4.4c-1.2-2.55-3.78-4.66-5.74-6a30.55,30.55,0,0,0-6.66-3.09L666.2,256l-.85-.32a51.49,51.49,0,0,0-8.56-2.75c-1.89-.35-3.8-.58-5.64-.8l-.13,0-2.12-.25-1.08-.14-.12,0h-.14l-.41,0c-1.19-.15-2.53-.32-3.86-.44-.88-.07-1.68-.1-2.38-.1a61.32,61.32,0,0,0-8.5.8l-.12,0-.12,0-.16,0a55.59,55.59,0,0,1-6.61.5l-1,0-.11,0-.13,0c-.38-.23-.76-.46-1.14-.72l-.28-.26c-.15-.25-.29-.51-.43-.78a54.65,54.65,0,0,1-1.66-6.75l0-.12-.16-.81c-.32-1.57-.61-3.16-.89-4.75l-.31-1.68c-.38-2.07-.82-4.19-1.24-6.18l-.1-.5c-.43-2-.86-4.07-1.25-6.12-.32-2.54-.73-5.89-1-9.3q-.27-3.62-.49-7.23a52.21,52.21,0,0,1-.12-6.26,58.77,58.77,0,0,1,3.1-10.21c.45-.95.87-1.75,1.3-2.47l.53-.48c.87-.58,1.72-1.09,2.6-1.56l.19-.06.21,0a31.28,31.28,0,0,1,3,1,33.35,33.35,0,0,1,4.82,2.81c.56.47,1.1,1,1.64,1.46l.14.13.16.14.1.09.21.19c.94.84,1.82,1.64,2.77,2.38a46.23,46.23,0,0,0,5.36,3.76c.87.5,1.73,1,2.58,1.54l.17.2q.27.28.51.57c1,1.37,2,2.83,2.82,4.12l.09.14.18.27a74.08,74.08,0,0,0,6.77,9.16c4.47,4.89,11.08,8,19.66,9.21,2.26.31,5,.72,7.68,1.35l.63.15c.82.2,1.9.46,3,.67,1.43.25,2.91.43,4.38.54l.61,0a13.3,13.3,0,0,0,5.93-1.63c3.25-1.59,5.39-4.65,6.72-6.81a26.28,26.28,0,0,0,2.31-5.31l.21-.59c.14-.38.28-.77.4-1.16.4-1.26.78-2.59,1.12-3.94a76.84,76.84,0,0,0,1.7-10.36l0-.24c.17-1.45.28-3,.33-3.77a36,36,0,0,0-.18-5.35v-.13l-.08-1c-.28-3.61-.7-7.06-1.25-10.27-.32-1.89-.63-3.8-.93-5.66.7-8.28,1.07-16.88,1.13-25.57a59.85,59.85,0,0,0-.38-7.49,39.11,39.11,0,0,0-1-6.09,26.82,26.82,0,0,0-1.19-3.26c-.25-1.56-.54-3-.87-4.34a33.39,33.39,0,0,0-1.07-3.72c-.42-1.1-.89-2.19-1.4-3.26a10.1,10.1,0,0,0-1.56-2.22c-.22-.26-.45-.53-.66-.8a12.13,12.13,0,0,0-5.16-3c-.24-.07-.49-.12-.74-.17l-.16-.33-.18-.33a24.23,24.23,0,0,0-2.74-3.83c-.33-.41-.67-.82-1-1.23l1.75,2.29A71,71,0,0,0,684,98a93.47,93.47,0,0,0-8.37-6.86,32.59,32.59,0,0,1-2.84-2.92l-1-1.07c-2-2.14-3.55-3.71-5.11-5.11-1.15-1-2.39-2-3.58-3-.63-.49-1.26-1-1.87-1.49-1.46-1.19-3-2.56-4.84-4.42A69.66,69.66,0,0,0,645,63.69a118,118,0,0,0-13.84-7.57c-1.36-.63-2.8-1.26-4.41-1.94l-2-.84,1.81.79c-1.88-.82-3.77-1.59-5.66-2.36l-2.77-1.13c-1.16-.52-2.31-1.06-3.46-1.61-1.4-.66-2.84-1.34-4.29-2-2.39-1-4.79-2-7.19-3l-1.7-.71c-1.37-.63-2.83-1.36-4.61-2.29a42.12,42.12,0,0,0-5.75-4.22,56.68,56.68,0,0,0-8.71-4,46.3,46.3,0,0,0-5-1.51l-.48-.13a11.09,11.09,0,0,0-5.87-1.69,10.92,10.92,0,0,0-4,.75Z"/><path class="cls-1" d="M168.17,477.72h-1.44c-5.52,0-9.77.2-13.79.47-2.2.16-4.41.44-6.56.71l-.53.07c-1.27.16-2.54.3-3.82.44-2,.22-4.16.45-6.24.78s-4.44.83-6.6,1.31c-1.77.39-3.6.79-5.42,1.11a44.58,44.58,0,0,1-4.49.26h-.15c-2.13,0-4.23-.21-6.38-.43l-.41,0a56.67,56.67,0,0,0-6-.41h-.2c-2.13,0-4.28.22-6.36.42h-.12c-3.26.32-7,.68-10.61.68-.69,0-1.39,0-2.08,0-4.46-.18-8.06-.44-11.35-.81l-.54-.09a155.5,155.5,0,0,0-15.81-2c-1-.05-1.91-.08-2.8-.08a37.59,37.59,0,0,0-4.63.27l-1,.13a45,45,0,0,0-9.23,1.83c-2,.7-4.16,1.45-6.38,2.09-1.26.36-2.55.68-3.8,1s-2.22.55-3.32.86A37.87,37.87,0,0,0,17.25,491a36.71,36.71,0,0,0-7.8,6.48c-3,3.5-7.93,10.4-7.18,17.39l0,.21,0,.22A74.53,74.53,0,0,0,.9,528.71,60.14,60.14,0,0,0,0,539.54c0,1.34.11,2.67.24,4.26l.07.94c.1,1.37.21,2.79.4,4.18,0,2.05,0,4.11,0,6.16a57.2,57.2,0,0,0,.89,8.3l.19,1.22a77.64,77.64,0,0,0,3.86,14c2.7,7.52,5.7,15.6,9.46,25.42l1,2.58c1.31,3.37,2.66,6.85,3.76,10.36,1.7,5.37,3.11,9.44,4.56,13.19.65,1.67,1.27,3.35,1.89,5l.79,2.15c.48,1.28,1,2.55,1.48,3.82s.89,2.24,1.31,3.37c1.49,4,2.72,8.09,3.9,12.09.33,1.09.65,2.18,1,3.26.82,2.74,1.58,5.15,2.3,7.37l.44,1.35c.62,1.93,1.26,3.92,2,5.81,2.47,5.92,5.11,11.82,7.83,17.56,1.73,3.63,3.4,7.37,5,11,2.66,6,5.42,12.11,8.49,18a42.73,42.73,0,0,0,2.78,4.38l1.1,1.6c1.68,2.51,3.29,5.11,4.79,7.54l2.51,4.14c1.78,2.94,3.62,6,5.51,8.94a96.06,96.06,0,0,0,5.77,8.09,50.77,50.77,0,0,0,3.49,3.84c.61.62,1.21,1.23,1.79,1.86,2.27,2.44,4.44,5.05,6.54,7.58,1.33,1.59,2.7,3.24,4.08,4.83a69.59,69.59,0,0,0,6.81,6.82l2.17,1.92c1.72,1.53,3.51,3.12,5.34,4.56a39.07,39.07,0,0,0,5.84,4l4,2.15c1.8,1,3.72,1.84,6.23,2.9a24.14,24.14,0,0,0,8,1.38h.19l.38,0,.4.06a11.27,11.27,0,0,0,10.84-8.21,2.06,2.06,0,0,0,.26.12,28.68,28.68,0,0,0,3.46.43h.38a14.44,14.44,0,0,0,6.24-1.84c.76-.43,1.5-.89,2.25-1.34a29,29,0,0,0,5.52-4.51,25.23,25.23,0,0,0,5.64-9.05c.52-1.36,1-2.77,1.37-4.13l.08-.24c.44-1.41.86-2.84,1.28-4.26,1.2-4,2.43-8.18,4-12.13,1-2.2,2-4.41,3.06-6.54.8-1.67,1.6-3.35,2.38-5,1.31-2.87,2.82-6.21,4-9.56a39.8,39.8,0,0,0,1.82-7.24q.36-2.22.69-4.44c.53-3.53,1.09-7.18,1.92-10.72l.54-2.23c.4-1.61.81-3.29,1.14-4.95s.68-3.59,1-5.39l.39-2.16c.68-3.76,1.38-7.81,1.89-11.9.19-1.48.36-3,.53-4.45.13-1.18.27-2.35.41-3.52a150,150,0,0,0,1.81-16.92c0-1,.07-2,.1-3a15.78,15.78,0,0,0-1.47-6.66l-.34-.84a26.08,26.08,0,0,0-2.12-4.35,37.75,37.75,0,0,0-3.64-4.75,44.76,44.76,0,0,0-5-4.64,61.78,61.78,0,0,0-7.79-5.69c-1.46-.87-3-1.63-4.5-2.36-.7-.34-1.4-.68-2.1-1-1.06-.54-2.11-1.15-3.12-1.75s-2.32-1.36-3.53-2a47.22,47.22,0,0,0-8.88-3.38,55.71,55.71,0,0,0-9.92-1.46h-.15c-2.17-.16-4.42-.33-6.64-.33h-1.06c-1,0-2.13.11-3.31.25l-.58.07a26.06,26.06,0,0,0-4.6.82,21.32,21.32,0,0,0-8.5,5,20.68,20.68,0,0,0-3.53,4.6,23.78,23.78,0,0,0-1.34,2.67l-.24.53a33.27,33.27,0,0,0-2.18,5.8,24.94,24.94,0,0,0-.11,11.35,32.13,32.13,0,0,0,2.59,7.21,23.75,23.75,0,0,0,3.23,4.63c.25.3.49.59.71.87A49.59,49.59,0,0,0,129,664.5c.64.58,1.31,1.13,2,1.66s1.09.89,1.62,1.35a23.67,23.67,0,0,1,2.05,2.07c.37.57.72,1.13,1,1.68a32.06,32.06,0,0,1-.09,3.86l-.21,0a48,48,0,0,1-5.83-1.29c-1.63-.49-3.35-1.08-5.11-1.77a31.1,31.1,0,0,1-3.39-1.86,37.56,37.56,0,0,1-3.74-4.22,96.15,96.15,0,0,1-5.54-9.08l-1-1.8c-2.06-3.65-4.24-7.58-6.23-11.66-1.86-3.81-3.59-7.74-5.27-11.54l-.41-.92c-1-2.22-2.07-4.43-3.12-6.57-.71-1.45-1.42-2.9-2.11-4.36a10.34,10.34,0,0,0-.72-1.6l-.25-.64-.26-.65c-1-2.51-1.94-5.07-2.86-7.55-.39-1-.77-2.08-1.16-3.11-1.58-4.2-3.4-8.2-5.14-11.94-1.32-2.83-2.66-5.86-4.35-9.8a28.17,28.17,0,0,1-1.32-4.22c-.14-2.45,0-5,0-7.38,0-.69,0-1.37.06-2.06a9.69,9.69,0,0,0,0-1.41c1.56.26,3.17.45,4.73.63l1.44.17,3.16.36,2.6.29c1.38.22,2.75.46,4.13.69,3.21.56,6.53,1.14,9.84,1.43,1.76.15,3.52.27,5.29.39,2.12.15,4.31.3,6.46.51s4.39.78,6.52,1.19,4.45.86,6.68,1.21l1.4.23a91.26,91.26,0,0,0,14.13,1.5c.87,0,1.72,0,2.54-.08a89.49,89.49,0,0,0,10.08-1.36,55.79,55.79,0,0,0,7.52-1.87l1.22-.42c.78,0,1.56-.15,2.32-.25l.31,0,.29,0a48,48,0,0,0,5.87-1,35.12,35.12,0,0,0,5.85-2.32l.72-.36a16,16,0,0,0,7.93-2.79l.28-.21c.43-.32.84-.62,1.22-.93a7.59,7.59,0,0,0,2.45-1.14c.55-.4,1.12-.79,1.68-1.19a42,42,0,0,0,6.83-5.55,27.09,27.09,0,0,0,6-11,57.3,57.3,0,0,0,1.43-9.8c.2-2.41.39-5,.37-7.63a51.81,51.81,0,0,0-1.22-10.08,47,47,0,0,0-1.5-5.25c-.17-.53-.35-1.06-.51-1.59-.78-2.43-1.48-4.63-2.35-6.79-1.25-3.13-2.77-6.13-4.08-8.66l-.63-1.21c-.66-1.29-1.34-2.62-2.14-3.87a24.18,24.18,0,0,0-5-6,33.08,33.08,0,0,0-6.55-4.37l-.42-.2a33.91,33.91,0,0,0-4.19-1.68l-.65-.43c-3.41-2.21-7.71-2.39-11.47-2.39Z"/><path class="cls-1" d="M243.11,476.56c-5.75.62-11.73,1.61-16.05,6.19a33.84,33.84,0,0,0-3.51,4.48,23.32,23.32,0,0,0-2.12,4.49l-.39,1a14.87,14.87,0,0,0-.78,3.53,47.53,47.53,0,0,0-.54,6.44c0,2.82,0,5.65-.05,8.47,0,6.94-.06,14.12-.25,21.18a10.2,10.2,0,0,0,.65,3.85c-.26,6.76-.29,13.64-.32,20.3v.34c0,6-.44,12-.85,17.82-.3,4.5-.62,9.14-.77,13.72-.28,9.28-.29,18.73-.3,27.86v3.89c0,3.81.18,7.68.36,11.43.07,1.41.13,2.83.19,4.26.22,5.34.27,10.83.31,15.68.06,8.1.07,16.24.07,23.23l-.18,2.77c-.2,3-.4,6-.57,9-.23,4.17-.22,8.42-.2,12.52,0,1.08,0,2.15,0,3.22v31.62c-.33,4.42-.67,9.57-.55,14.65.07,3,.27,6.12.47,9.1l.08,1.25c0,6.14,0,13.41.08,20.72,0,5.41.15,10.27.31,14.86l0,1c.07,2.1.14,4.27.07,6.41,0,1.47-.16,3.07-.39,5.06-.24,1.5-.54,3-.84,4.49-.2,1-.39,2-.58,3-.46,2.48-.87,5.13-1.28,8.09l-.22,1.62c-.25,1.74-.5,3.54-.67,5.32-.05.52,0,1.06,0,1.58v.32a22.44,22.44,0,0,0,2.31,9.61,15.22,15.22,0,0,0,2.2,3.41l.54,1.25a12.06,12.06,0,0,0,4.2,4.2l.14.06h0c.8.78,1.54,1.64,2.27,2.46l.46.52c1.4,1.6,2.88,3.38,4.66,5.61.82,1,1.62,2.1,2.43,3.16a64.24,64.24,0,0,0,7.06,8.3,32.83,32.83,0,0,0,5.19,3.89,32.27,32.27,0,0,0,5.11,2.34l1.1.43a26.75,26.75,0,0,0,9.8,2H262c.87,0,1.75-.06,2.62-.15a11.12,11.12,0,0,0,1.16.06,12.22,12.22,0,0,0,6.2-1.71,23.41,23.41,0,0,0,5.44-2.5,20.86,20.86,0,0,0,6.08-6.24,14.5,14.5,0,0,0,1.42-3.1c.14-.37.27-.73.42-1.09a8.24,8.24,0,0,0,.48-1.93l.18-1.14a26.69,26.69,0,0,0,.41-3.58,33,33,0,0,0-.53-5.53c-.06-.44-.13-.87-.19-1.31-.17-1.17-.37-2.35-.57-3.51l-.17-1c-.46-2.69-.89-5.4-1.31-8.1-.13-.92-.25-1.84-.38-2.76-.25-2.25-.4-4.54-.54-6.75q-.12-2-.27-4c-.33-4.13-1-8.3-1.57-12.32l-.18-1.19c-.56-4.64-1-9.71-1.45-15.49v-4.37c0-3.67,0-7.63.26-11.61.16-2.83.45-5.83.86-9.18.29-1.94.63-3.91,1-5.81.24-1.37.48-2.74.7-4.12l.07-.41.42-2.25c.22-1.16.44-2.32.64-3.48.45-2.51.8-5.15,1.09-7.27.22-1.56.45-3.13.69-4.68a11.37,11.37,0,0,0,3.91-2.54l1.77-1.47.47-.39a28.8,28.8,0,0,1,3.32-2c.67-.23,1.32-.42,2-.58.09.44.19.89.28,1.35.16,1.69.26,3.42.35,5.09l0,.28c.12,2.19.31,4.41.48,6.56l.1,1.28c.14,1.66.25,3.32.37,5,.22,3.23.45,6.58.84,9.87.22,1.85.46,3.7.7,5.55.45,3.5.91,7.12,1.24,10.7.5,5.38.71,10.85.88,16,.06,1.92.16,3.84.26,5.76.15,3.11.32,6.32.32,9.5q0,8.25,0,16.5c0,5.81-.08,10.69-.21,15.61-.05,1.68-.12,3.38-.2,5.07-.15,3.48-.31,7.08-.19,10.61.23,6.87.57,13.58,2.08,20.13a42.72,42.72,0,0,0,1.53,5.06c1.17,3.26,3.92,9.08,9.19,11.37,1.77.77,3.6,1.46,5.37,2.12l2.66,1a79.79,79.79,0,0,0,8.28,3.41,67.06,67.06,0,0,0,7,1.88A44.25,44.25,0,0,0,346.6,906c.47,0,.94,0,1.41,0,5-.34,8.77-1.48,11.43-3.5a40.75,40.75,0,0,0,5.09-4.41,20.65,20.65,0,0,0,4.32-5.93,27.16,27.16,0,0,0,2-6,63.47,63.47,0,0,0,.82-7.6c.05-.81.11-1.62.17-2.42.23-2.88.31-5.8.37-8.62.05-2,.1-4,.2-6,.13-2.47.38-5,.61-7.39s.51-5.15.63-7.74a98,98,0,0,0-.35-11.39c-.08-1.14-.16-2.28-.23-3.43-.15-2.43-.24-4.91-.34-7.3-.11-2.7-.22-5.48-.4-8.21-.13-2.13-.3-4.25-.47-6.37-.25-3.15-.51-6.42-.66-9.63s-.23-6.68-.3-9.94c-.05-2.1-.1-4.2-.17-6.3-.11-3.45-.37-6.94-.62-10.31-.13-1.67-.26-3.35-.37-5-.62-9.63-1.42-21-2.65-32.12-.28-2.49-.7-5-1.11-7.44-.14-.88-.29-1.76-.44-2.65-.4-2.55-.89-5.07-1.44-7.49l-.48-2.11c-.38-1.73-.78-3.46-1.18-5.18a47,47,0,0,0-2.25-6.63l-.13-.32c-1.41-3.6-2.47-7.36-3.49-11-.32-1.15-.64-2.29-1-3.43l-.14-.49c-.29-1-.59-2.05-1-3.05-.71-1.88-1.54-3.62-2.43-5.46l-.22-.46c-.53-1.11-1.1-2.22-1.66-3.29s-1-1.91-1.47-2.87c-1.33-2.71-2.57-5.5-3.73-8.12L344,663.79l-1-2.55-.1-.27c-.68-1.64-1.38-3.34-2.16-5a23.27,23.27,0,0,0-3.54-5.07c-.27-.3-.55-.6-.83-.89,1-.54,2.07-1.06,3.11-1.58,2-.56,4.1-1,6.11-1.4,1.72-.34,3.49-.7,5.22-1.15a23.37,23.37,0,0,0,12.81-8.2c1.18-1.53,2.3-3,3.33-4.62.64-1,1.25-2.1,1.83-3.14l.17-.3a93.78,93.78,0,0,0,7.05-14.92,50.86,50.86,0,0,0,2-9.35c.27-1.85.56-3.77,1-5.63a80.9,80.9,0,0,0,1.6-17.46c0-3.7-.29-7.27-.67-11.54.23-3.65.38-7.37.52-11l.05-1.22c.26-6.76-.57-13.45-1.61-20.87l-.25-2.22c-.48-4.23-1-8.6-1.71-12.87a59,59,0,0,0-3.27-12.45l-.3-.75a27.47,27.47,0,0,0-1.88-4,42.56,42.56,0,0,0-3.36-4.59,17.4,17.4,0,0,0-2.43-2.46,22.67,22.67,0,0,0-7.73-4.59c-1.62-.59-3.32-1.06-5-1.5l-.9-.25c-.65-.18-1.31-.35-2-.51a37.26,37.26,0,0,1-3.93-1.13l-.72-.32c-2-.89-4-1.8-6.08-2.63-2.65,0-5.3,0-7.94-.15a97.57,97.57,0,0,1-10.93-.88c-2.64-.4-5.25-.89-7.85-1.51a10.37,10.37,0,0,1-4.07-2l-1.37-.23c-2.12-.35-4.24-.69-6.37-1.06-4.34-.76-8.79-1.09-13.1-1.41-2.19-.17-4.46-.33-6.69-.56-1.71-.28-3.44-.62-5.12-.95-2.32-.45-4.72-.92-7.11-1.25a156.39,156.39,0,0,0-17.92-1.14H249.7a64,64,0,0,0-6.59.35Zm54,113a37.15,37.15,0,0,1-4.21-.94c-.22-.37-.43-.74-.62-1.12a29.71,29.71,0,0,1-.9-3.52c-.32-2.93-.57-5.92-.8-8.81-.27-3.26-.56-6.64-.95-10-.32-2.74-.62-5.48-.92-8.23,1.79.2,3.62.32,5.39.45s3.66.24,5.49.43a57.55,57.55,0,0,1,7.77,1.89c1.15.37,2.32.7,3.5,1s2.47.7,3.68,1.1a17.8,17.8,0,0,1,1,1.65c.13.44.24.88.34,1.33a70.65,70.65,0,0,1-.29,10.66,52.41,52.41,0,0,1-2.33,8.75l-.06.13h0a40.79,40.79,0,0,0-5.35,2.62c-1.29.77-2.69,1.59-4.16,2.32q-.71.21-1.44.36c-.51,0-1,0-1.54,0-1.14,0-2.31-.06-3.6-.18Z"/><path class="cls-1" d="M493.61,485.15c-4.67.11-9.32.55-14,1a97.88,97.88,0,0,1-15.77.87c-5.31-.3-10.58-1-15.88-1.37a134.83,134.83,0,0,0-15.95-.46c-4.88.24-9.69.69-14.52,1.26q-5.53.88-11,1.79a120.66,120.66,0,0,1-12.72,1.55,9.73,9.73,0,0,0-2.43,4.51,186.19,186.19,0,0,0-3.1,19.88,141.29,141.29,0,0,0-.57,15.44c.07,2.55.19,5.14.31,7.65s.23,5,.3,7.52c.1,3.76-.08,7.58-.25,11.28-.07,1.4-.13,2.79-.18,4.18-.16,4.42,0,8.9.21,13.22l.07,1.78c.15,3.73.51,7.49.85,11.13.13,1.39.26,2.79.38,4.19.87,9.95.94,20.09,1,29.9l0,2.61c0,3.12.19,6.29.35,9.36.11,2.06.22,4.13.29,6.21.16,4.65.2,9.39.23,14l0,2.1c0,1.55,0,3.09,0,4.64,0,3.48,0,7.07.17,10.59l0,.69c.26,5,.52,10.18.61,15.29,0,1.93.05,3.86.07,5.78,0,3.49.07,7.09.21,10.64.12,3,.41,6,.68,8.84.18,2,.37,4,.51,6,.61,8.87.61,17.94.6,26.71,0,2,0,3.92,0,5.88v1.77c0,2,0,4,0,6,0,1.81.14,3.65.24,5.42.05.85.09,1.7.14,2.55.09,1.82.16,3.64.23,5.46.15,3.39.29,6.9.53,10.36.15,2.21.35,4.46.54,6.63.25,2.87.52,5.83.67,8.76q.19,3.62.44,7.24c.2,3,.4,6,.54,9.05l.08,2.07c.2,4.52.39,9.2.82,13.8l.3,3.07c.16,1.53.32,3.06.44,4.6.18,2.39.26,4.84.34,7.2l0,1.15c.08,2.48.16,5,.16,7.59,0,1.52-.08,3.06-.15,4.55-.05,1.13-.1,2.26-.13,3.39a58.64,58.64,0,0,0,2.67,17c.79,2.35,1.54,4.46,2.29,6.47l.73,2c.82,2.24,1.66,4.56,2.69,6.76a22.87,22.87,0,0,0,4,5.76,18.56,18.56,0,0,0,2.49,2.16l.68.53a22.34,22.34,0,0,0,5.22,3.31c2.18.94,4.1,1.74,5.86,2.44l.75.29a29.8,29.8,0,0,0,5.62,1.84,36.59,36.59,0,0,0,6.2.7h.16a34.28,34.28,0,0,0,6.27-.76c1.8-.34,3.6-.86,5.35-1.37l1.49-.42A50.19,50.19,0,0,1,457.2,906c2-.21,4.12-.34,6.12-.47l3.06-.21c1.43-.1,2.85-.23,4.27-.35,1.77-.16,3.54-.31,5.31-.43a64.07,64.07,0,0,0,12.79-2,45.33,45.33,0,0,0,6.93-2.59,22.36,22.36,0,0,0,2.89-1.7c.67-.45,1.36-.9,2.07-1.29l.85-.32A58.72,58.72,0,0,0,509,893.4c.67-.37,1.32-.78,2-1.19s1.07-.66,1.62-1l1.13-.64c.92-.52,1.88-1.06,2.79-1.63a40.11,40.11,0,0,0,5.11-3.86,28.7,28.7,0,0,0,3.73-4.3l.34-.46c.82-1.06,1.54-2.2,2.25-3.3.48-.77,1-1.53,1.48-2.27l1-1.16a19.47,19.47,0,0,0,3.84-6.65,33.68,33.68,0,0,0,1.06-3.49,50.93,50.93,0,0,0,1.32-9.28c.1-1.73,0-3.5,0-5.21l0-.72c0-.91-.06-1.76-.09-2.62a9.51,9.51,0,0,0,.91-2.9l.18-1.19a10.41,10.41,0,0,0,.16-2.81c0-.42-.07-.83-.12-1.25-.21-2.1-.52-4.28-1-6.65a39.08,39.08,0,0,0-3.2-8.92l-.28-.62,0,.14c-.22-.56-.46-1.12-.7-1.68-.35-.85-.68-1.7-1-2.55-.25-.61-.48-1.22-.73-1.83l-.31-.77c-.65-1.62-1.33-3.3-2.1-4.9a19.25,19.25,0,0,0-2.63-3.7l-.52-.61-.41-.39-.21-.2-2.94-2.27a23.36,23.36,0,0,0-4.24-2,32,32,0,0,0-9.3-1.68c-.46,0-.92,0-1.38,0a40.23,40.23,0,0,0-5,.38c-3.25.4-6.22.82-9.09,1.29a44.53,44.53,0,0,0-6.12,1.33A40.58,40.58,0,0,0,477,806a40.4,40.4,0,0,1-3.91,2.13c-.42.14-.85.26-1.28.36s-.64,0-1,0H470c-.19-.92-.32-1.85-.43-2.77l-.17-1.4c-.56-4.48-1.14-9.1-1.88-13.62-.29-1.74-.6-3.48-.91-5.21-.4-2.25-.81-4.58-1.17-6.88-.47-3.83-.88-7.73-1.27-11.51l-.33-3.13c-.11-1-.24-2-.36-3-.18-1.57-.38-3.19-.52-4.8a38.68,38.68,0,0,1,0-6.72,45.38,45.38,0,0,1,1.38-5.95,33.26,33.26,0,0,1,3.69-1.94,109.4,109.4,0,0,1,10.47-3.85,75.37,75.37,0,0,1,11-2.19l1.33-.17c2.78-.34,5.67-.69,8.45-1.3,1.17-.25,2.37-.57,3.66-1a24.88,24.88,0,0,0,5.2-2.21,15.69,15.69,0,0,0,5.89-6.36l.16-.37a15.34,15.34,0,0,0,1.31-3.69,28.55,28.55,0,0,0,.5-4.48c0-.48,0-1,0-1.44l0-.53c0-.84-.08-1.68-.12-2.52l-.06-1.27c-.11-2.32-.24-4.64-.37-7l-.06-1.15c-.16-2.93-.2-5.91-.24-8.8,0-2.16-.06-4.4-.14-6.6-.18-5-.81-10-1.42-14.92l0-.23a132.52,132.52,0,0,0-3.32-17.87c-.7-2.61-1.39-5-2.12-7.42a16.22,16.22,0,0,0-.64-1.74l-.33-.79-.81-1.9a18.92,18.92,0,0,0-2.25-3.07,16.35,16.35,0,0,0-5.53-4.41,29.74,29.74,0,0,0-4.38-1.73,16.79,16.79,0,0,0-3.12-.5l-1-.11c-.67-.07-1.32-.13-2-.18-.51,0-1,0-1.57,0a53.4,53.4,0,0,0-8.18.86l-.15,0c-1.15.18-2.52.41-3.87.73a35.72,35.72,0,0,0-5.67,2.1l-.22.1a74.2,74.2,0,0,0-12.58,6.89c-1.44,1-2.78,1.84-4.09,2.57-.15-.63-.3-1.26-.42-1.91a113.82,113.82,0,0,1,.28-17.78c.26-3.33.49-6.58.45-9.9a72.49,72.49,0,0,0-1-10l-.14-.91c-.26-2.34-.44-4.73-.51-7.12a47.5,47.5,0,0,1,.38-6.65l.18-.94.72-.18c.59,0,1.18,0,1.77,0,1.5,0,3,.08,4.32.16,2.87.16,5.53.34,8.13.57l1.36.12c2,.18,4.1.38,6.16.39h.31c2.19,0,4.41-.21,6.56-.41l.67-.07a48.57,48.57,0,0,0,9.94-1.75,25.13,25.13,0,0,0,7-3.07,20.31,20.31,0,0,0,6-6.26,16.76,16.76,0,0,0,2.19-5.91,74,74,0,0,0,.85-13.19c0-1.28,0-2.57,0-3.85.07-3.25.21-6.56.35-9.75.21-5,.43-10.07.37-15.11-.05-3.5-.12-7.64-.35-11.8-.28-4.92-.87-9.68-1.35-13.29l-.06-.44c-.32-2.49-.65-5.08-1.1-7.6a31.65,31.65,0,0,0-1.47-5l-.19-.53a43.35,43.35,0,0,0-1.71-4,9.13,9.13,0,0,0-.92-1.4,24.85,24.85,0,0,0-1.92-2.39c-1.66,0-3.31.1-4.94.14Z"/><path class="cls-1" d="M651.41,474.37c-5.3.07-10.59.24-15.89.27-10.66.06-21.3.64-31.95.64-5.12,0-10.23,0-15.33,0-5.28,0-10.53.21-15.8.41s-10.66.26-16,.47-10.37.88-15.52,1.55l3.06-.41q-3.35.45-6.69.87a25.89,25.89,0,0,0-7,7.61c-2,3.49-2.85,7.65-3.53,11.27A133,133,0,0,0,524.59,515c-.25,5-.4,10.25-.44,16,0,1.9,0,3.81,0,5.71,0,3.46,0,7-.09,10.53-.06,2.19-.18,4.41-.3,6.56s-.25,4.62-.3,6.94a71.11,71.11,0,0,0,1.18,12.48l.19,1.2c.21,1.89.39,4,.57,6.53.08,1.18.19,2.35.29,3.52s.25,2.59.33,3.88c.15,2.28.29,4.57.42,6.85.19,3.09.38,6.18.59,9.27.19,2.77.53,5.49.87,8,.48,3.69.94,7,1.63,10.32.79,3.77,1.93,7.55,3,11.2.41,1.37.83,2.74,1.22,4.12,2.19,7.59,4.24,16,6.46,26.52,1.09,5.15,1.9,10.29,2.49,14.19q.43,2.94.89,5.88l1,7c.82,7.73,1,15.64,1.11,23.3l.06,3c0,2.48.18,4.65.4,6.63a70.86,70.86,0,0,0,1.65,8.83c1.1,4.57,1.87,9.18,2.49,13.09.54,4.27,1.08,8.85,1.41,13.36.14,1.94.31,3.88.47,5.82.29,3.37.59,6.86.75,10.3.2,4.56.31,9.46.36,15.89,0,1.25,0,2.49,0,3.73,0,4.09,0,8.31.36,12.44a41.25,41.25,0,0,0,2,10,71.54,71.54,0,0,0,3.61,8.45,60.49,60.49,0,0,0,3.63,6.45,34.2,34.2,0,0,0,6.2,7.57,48.9,48.9,0,0,0,5.12,3.65c.8.52,1.6,1,2.4,1.58l.85.59c1.5,1,3,2.11,4.63,3.08a40.79,40.79,0,0,0,16,5.67,63.63,63.63,0,0,0,8.59.76c.53,0,1.07,0,1.62,0a39.7,39.7,0,0,0,5-.66l1.12-.19c1.28-.22,2.61-.47,3.95-.74,3.37-.71,6.71-1.78,10-2.81,1.33-.42,2.66-.85,4-1.25l2.94-.88c3.58-1.06,7.28-2.17,10.85-3.42a62.44,62.44,0,0,0,9.05-3.89c2.31-1.26,4.53-2.66,6.2-3.75,2-1.3,4.17-2.57,6.87-4a40.44,40.44,0,0,0,8-5.79c3.93-3.54,7-7.94,10-12.2l.42-.6,1-1.44a44.43,44.43,0,0,0,3.22-4.93,64.89,64.89,0,0,0,3.95-9.2c.4-1.16.84-2.32,1.27-3.49a58.47,58.47,0,0,0,3.3-10.94,160.84,160.84,0,0,0,2-17.57c.3-5.87.42-11.57.49-16.38.06-3.55-.12-7.17-.29-10.67-.09-1.71-.17-3.43-.23-5.14-.18-5.31-.7-10.63-1.21-15.62-.48-4.76-1.13-9.59-2-14.76-.25-1.52-.52-3-.79-4.56-.39-2.23-.79-4.53-1.13-6.81a73.61,73.61,0,0,0-3-14.75,162.86,162.86,0,0,0-6.48-15.48c-.45-1-.89-1.91-1.37-2.86a20.25,20.25,0,0,0-2.75-3.84l-.54-.65-.22-.21-.43-.41c-1-.79-2-1.57-3-2.34a24.22,24.22,0,0,0-3.67-1.75l-.69-.28a30.14,30.14,0,0,0-9.08-1.79,14.52,14.52,0,0,0-1.48-.07c-.72,0-1.49,0-2.43.12-1.27.11-2.54.26-3.82.41-1.08.12-2.16.25-3.24.35A79,79,0,0,0,644,652.1c-2.49.57-4.74,1.18-6.89,1.87l-1.83.62c-1.44.5-2.93,1-4.45,1.38-.61.15-1.23.28-1.85.41a27.78,27.78,0,0,0-4.46,1.22l-.27.11a35.78,35.78,0,0,0-5.51,2.58c-.4.26-.8.53-1.19.81l-.2.14c-.8.55-1.57,1.17-2.32,1.77l-.73.59a13.78,13.78,0,0,0-2.62,3.06l-.7,1a17.78,17.78,0,0,0-1.82,3.9l-.14.38-.1.24-.24.65a10.72,10.72,0,0,0-.39,1.37l0,.11a35.24,35.24,0,0,0-.89,6.12,49.82,49.82,0,0,0,0,6.68,59.64,59.64,0,0,0,.77,6.06,24.32,24.32,0,0,0,2.1,6,18,18,0,0,0,1.42,2.54,15.7,15.7,0,0,0,6.27,5.78,22.32,22.32,0,0,0,5,1.78,41.28,41.28,0,0,0,8.5.82h1l1.29,0c.89,0,1.78,0,2.66,0l1.42,0c.45.7.87,1.42,1.26,2.13a40,40,0,0,1,1.4,5.14c.37,1.71.63,3.44.86,5,.71,6,.9,12.07,1,17.8a150.59,150.59,0,0,1-.55,17c-.22,1.14-.44,2.08-.7,3a34.15,34.15,0,0,1-2.28,3.35l-.19.25c-.92,1.25-1.84,2.49-2.78,3.72-1.1,1.4-2.18,2.83-3.26,4.26l-.39.52c-.18.2-.36.41-.55.61l-.2.11-.2.13a27.58,27.58,0,0,1-3.22.71,67.9,67.9,0,0,1-7.47.48c-1,0-2,0-2.92-.1a21,21,0,0,1-2-.55c-.19-.1-.37-.21-.55-.32l-.18-.18a27.46,27.46,0,0,1-1.34-2.63l-.32-.78c-.87-2.14-1.77-4.35-2.59-6.55a68.79,68.79,0,0,1-2.88-9.43c-.56-2.45-1-5-1.41-7.4-.14-.78-.27-1.56-.41-2.33l-.07-.4c-.46-2.59-.94-5.28-1.35-7.93-.44-4.36-.65-8.82-.85-13.14-.26-5.54-.53-11.26-1.28-16.86-.8-5.88-1.39-11.11-1.83-16-.28-3.12-.46-6.29-.63-9.36-.12-2.16-.24-4.33-.39-6.49-.24-3.33-.65-6.7-1-10-.24-2-.48-4-.69-6-.54-5.29-.69-10.68-.77-15.31-.2-10.74-.24-21.23-.25-32.85v-2c0-4.26,0-8.66-.37-13-.31-3.52-1-7-1.57-10.46-.28-1.58-.57-3.16-.82-4.74-.37-4-.57-8-.69-11.05a71.58,71.58,0,0,1,.27-11.56l.11-.87.1-.76c.18-1.17.41-2.55.75-3.92,1-.52,2-1,2.82-1.39,1.21-.47,2.65-1,4.13-1.44s3.11-.83,4.63-1.21l1.51-.37,4.09-1.07c2.5-.67,5.08-1.36,7.65-1.91l2.17-.48c3.11-.68,6.31-1.38,9.5-1.82,2-.28,4-.59,6.07-.91,1.24-.19,2.48-.39,3.72-.57,1.94-.19,4-.28,6.69-.28,1.21,0,2.41,0,3.62,0h2.21l2.08,0a38.08,38.08,0,0,0,5.58-.53l.19,0a17.93,17.93,0,0,0,4.6-1.54l.76-.34a11.69,11.69,0,0,0,4.12-3.36l.32-.39a24.38,24.38,0,0,0,3-4.32,39,39,0,0,0,3.39-9.73,62.54,62.54,0,0,0,1.12-9.08,72.14,72.14,0,0,0-1.05-13.26l-.06-.46-.06-.42a78.47,78.47,0,0,0-1.27-7.84,30.41,30.41,0,0,0-1-3.35,22.57,22.57,0,0,0-3-6,26.23,26.23,0,0,0-3.21-3.73A21,21,0,0,0,667.1,474c-5.23.21-10.46.32-15.69.39Z"/><path class="cls-1" d="M856.66,460.35a90.08,90.08,0,0,1-10.23.86c-5.19.1-10.36.34-15.54.62s-10.4.29-15.6.5q-15.56.6-31,2.61c-9.35,1.27-18.71,2.47-28.09,3.43-4.75.49-9.47.93-14.23,1.2-4.27.23-8.52.68-12.79,1-2.37.16-4.74.27-7.12.39a35.53,35.53,0,0,0-5.45,2.44,37.44,37.44,0,0,0-4.69,3.39l-.15.13a16.46,16.46,0,0,0-2.42,2.35c-1.8,2.18-3.52,4.48-5.18,6.71l-.59.78-.11.14q-1.38,1.77-2.73,3.55l.83-1.05a71,71,0,0,0-4.81,6.87,45.58,45.58,0,0,0-3.9,8.8,59.57,59.57,0,0,0-1.79,7c-.71,3.38-1.24,6.58-1.62,9.75-.28,2.3-.51,4.72-.75,7.86a58,58,0,0,0,0,6c0,.59,0,1.18.05,1.77.11,5.14.2,10.48.26,15.86,0,3.62.18,6.8.45,9.71.32,3.49.83,7,1.33,10.37.27,2.46.44,5,.62,7.4.12,1.77.25,3.53.41,5.29.35,3.82,1,7.66,1.54,11.37.19,1.17.37,2.34.55,3.51l.08.65c.22,1.71.43,3.41.67,5.12l.09.63a24.09,24.09,0,0,0,1.13,5.33,25.62,25.62,0,0,0,2.26,4.75,20.41,20.41,0,0,0,3.33,4,21,21,0,0,0,8.37,4.67,19.22,19.22,0,0,0,3.11.63l.88.14a40.83,40.83,0,0,0,4.15.47c.57,0,1.15,0,1.71,0a40.14,40.14,0,0,0,12-1.84c3.83-1.19,7.57-2.7,10.72-4s6.09-2.35,9.07-3.42c1.93-.69,3.88-1.45,5.77-2.18,1.36-.53,2.73-1.07,4.1-1.58l1.11-.41a64,64,0,0,1,9-2.9c3-.64,6.62-1.38,10.29-1.93l4.66-.63.28,0a48.51,48.51,0,0,1,5.7-.36c.59,0,1.19,0,1.78,0,.44.09.87.2,1.29.32l.09.17a25.73,25.73,0,0,1,1,3.63,53.2,53.2,0,0,1,.3,8.45c-.07.3-.15.61-.24.92a36.49,36.49,0,0,1-2.72,4.39,35.73,35.73,0,0,1-4.29,4.38c-1.44,1-3,2.17-5.06,3.52a42.52,42.52,0,0,1-6.16,3.37l-2.3.91c-3.85,1.52-7.83,3.09-11.66,4.87a37.35,37.35,0,0,0-6.37,4.14l-.7.52c-1.56,1.17-3.12,2.41-4.62,3.61l-1.29,1-1.73,1.3c-1.56,1.17-3.18,2.38-4.73,3.61-2,1.58-3.91,3.29-5.67,4.91-3.59,3.28-7,6.86-10.27,10.32a33.33,33.33,0,0,0-5.69,7.86,38.45,38.45,0,0,0-3.54,9.53,135.49,135.49,0,0,0-2.46,17.85c-.18,2.38-.38,5.22-.49,8.09a56.92,56.92,0,0,0,.75,10.07,58.53,58.53,0,0,0,3.21,11.49c.24.68.49,1.36.72,2a57.85,57.85,0,0,1,1.7,6.36l.15.63c.2.88.47,2,.84,3.14.15.44.3.85.47,1.28a15.83,15.83,0,0,0,3.21,5.58,13.67,13.67,0,0,0,7.8,4.48,21.54,21.54,0,0,0,3.89.43h.57a26,26,0,0,0,4.48-.66,9.59,9.59,0,0,0,1.29-.39l.21-.08a37.55,37.55,0,0,0,5.69-2.56,41.53,41.53,0,0,0,7.69-5.62c1.21-1.08,2.51-2.11,3.73-3.07l.89-.68c1.9-1.44,3.86-2.92,5.71-4.48,1.49-1.25,2.91-2.61,4.29-3.93l1.07-1c1.22-1.16,2.48-2.29,3.72-3.39l1.87-1.69c1.79-1.63,3.52-3.39,5.18-5.09l.43-.44c1.06-1.08,2.1-2.22,3.11-3.32a63.15,63.15,0,0,1,7.35-7.18l.5-.39c3.48-2.72,7.07-5.54,10.38-8.58a68.24,68.24,0,0,0,6.88-7.54c.78-1,1.57-2,2.36-2.93,1.6-2,3.19-4,4.76-6l.06-.09h0l.48-.61a69.82,69.82,0,0,0,4.67-6.48q1.71-2.77,3.39-5.58l.35-.58a127.15,127.15,0,0,0,6.56-12.78l1.26-2.75,1.44-3.12c.53-1.13,1.12-2.24,1.68-3.32.45-.84.89-1.67,1.31-2.53,1.65-3.4,3.09-7,4.49-10.39.48-1.19,1-2.39,1.46-3.58l.37-.86-.05.09c.23-.51.44-1,.65-1.53l.05-.12h0l0,0s0-.06,0-.07l.14-.33.13-.3-.1.2-.17.38A92.6,92.6,0,0,0,854.52,624c.84-3.52,1.38-7.17,1.91-10.7.19-1.31.38-2.63.59-3.93l.19-1.16c.48-2.95,1-6,1.29-9,.16-1.45.29-2.91.42-4.38.1-1.2.21-2.41.33-3.61l.12-1.1a55,55,0,0,0,.41-6.17c0-1.86-.2-3.74-.39-5.56-.07-.7-.14-1.4-.2-2.1-.29-3.22-.63-6.67-1.22-10.17a20.64,20.64,0,0,0-1-3.47,36.78,36.78,0,0,0-2.57-5.78,22.65,22.65,0,0,0-8.08-8,38.76,38.76,0,0,0-5.52-2.55l-.55-.22c-1.55-.62-3.18-1.16-4.74-1.68-.67-.21-1.34-.43-2-.66a83.76,83.76,0,0,0-17-3.5c-4.81-.58-9.72-.91-14.48-1.23L801,539c-1.79-.12-3.41-.22-5.07-.22-.75,0-1.44,0-2.11.06a83.68,83.68,0,0,0-10.21,1.36c-4.93.94-9.58,3.1-14.07,5.19l-.77.35a30.68,30.68,0,0,1-3.57,1l-1.08,0h-.38c-.3-.08-.61-.16-.9-.26a42.48,42.48,0,0,1-5.11-3.42c-1-.84-2-1.75-2.91-2.63-.67-.64-1.35-1.28-2.05-1.9l-.86-.77c-1.26-1.11-2.56-2.27-3.74-3.52l-.1-.14h0a19.05,19.05,0,0,1-.49-1.91c0-.5,0-1,0-1.51.53-.29,1.08-.57,1.64-.84a51.84,51.84,0,0,1,7.37-2.06c3.28-.67,6.63-1.26,9.77-1.79l6-1.07c3.72-.66,7.57-1.35,11.37-1.92,2.23-.25,4.55-.44,7.1-.58,3.17-.18,6.6-.56,10.81-1.17l1.42-.18c3.75-.46,7.62-.94,11.39-1.72,1.6-.33,3.3-.75,5.38-1.33a47.37,47.37,0,0,1,5.8-1.13l3.65-.5,2.43-.33-1.25.16,5.44-.82,1.07-.17.86-.1a91,91,0,0,0,13.6-2.4,72.38,72.38,0,0,0,8.29-3.12l.23-.1a23.3,23.3,0,0,0,5.06-2.89q.84-.33,1.68-.69c4.15-1.76,7.74-5.12,11.29-10.56a31.39,31.39,0,0,0,3.87-9.55,33,33,0,0,0,.72-5.73,19.32,19.32,0,0,0-9.42-17A27.48,27.48,0,0,0,868,460.7l-.32-.12a22.19,22.19,0,0,0-5.59-1.06l-.2,0c-1.73.29-3.47.61-5.21.85Z"/><path class="cls-1" d="M179,320.81a.94.94,0,0,0-.46.59c-.77,5.28-1.55,10.55-2.3,15.83l-.1.63a1,1,0,0,0-.84-.46,1,1,0,0,0-.7.29,1.06,1.06,0,0,0-.3.71c-.48,3.9-1,7.81-1.43,11.72q-.6,5.08-1.19,10.17c-.1.8-.19,1.61-.29,2.41-.06.58-.1,1.16-.15,1.74l-.87,9.93-.4,4.53c0,.6-.12,1.21-.15,1.81l-.33,7.23c-.14,2.89-.27,5.79-.41,8.68,0,.49,0,1,0,1.46,0,1.55-.07,3.09-.11,4.63a.93.93,0,0,0-.53.64,11.7,11.7,0,0,0-.19,2.51c0,.53,0,1.06,0,1.59v2.09c0,1.06,0,2.11,0,3.16,0,1.6,0,3.2,0,4.81,0,.81,0,1.62,0,2.43q.16,6.17.3,12.33a1.11,1.11,0,0,0,0,.19v.13a1,1,0,1,0,2,0c0-1.94,0-3.88,0-5.82,0-1.59,0-3.19,0-4.78.17,1.21.35,2.42.52,3.63v0c.08.62.15,1.24.26,1.86a12.18,12.18,0,0,0,.54,1.78,1,1,0,0,0,1,.73,1,1,0,0,0,1-.73c.15-.68.33-1.34.45-2a19,19,0,0,0,.22-2.13c.08-1.21.1-2.42.14-3.62a2.09,2.09,0,0,0,0-.25c0,.35.07.7.11,1.05l.12,1.16c.06.64.1,1.28.17,1.92s.18,1.35.31,2a1,1,0,0,0,1,.73,1,1,0,0,0,1-1c.05-.7.1-1.41.12-2.12a.94.94,0,0,0,.16-.52v-4.19c0-.18,0-.36,0-.55,0-.36.05-.72.08-1.08l.12-.72a1,1,0,0,0-.1-.77.78.78,0,0,0-.1-.15c0-1.42,0-2.83,0-4.25a1,1,0,0,0-.77-1c.05-1.27.11-2.54.16-3.81,0-1,.1-2,.16-3.06.06-1.21.1-2.43.19-3.65l.57-8.33c.05-.62.11-1.23.17-1.85.17-1.68.33-3.35.5-5s.32-3.19.47-4.79c.34-2.47.67-4.93,1-7.4L180,375c-.06.61-.12,1.21-.13,1.82-.07,3-.12,6-.19,9.06,0,.61,0,1.22,0,1.83.06,1.69.13,3.38.19,5.08,0,1.33.1,2.66.14,4,0,.67.1,1.33.15,2l.69,9c.12,1.7.3,3.4.5,5.09.14,1.23.3,2.46.5,3.68s.5,2.27.75,3.41a1,1,0,0,0,1.47.59,2.93,2.93,0,0,0,.59-.46,2.13,2.13,0,0,0,.38-.75,3.5,3.5,0,0,0,.11-.79c0-.2,0-.41,0-.62.7-4.88,1.36-9.75,2-14.63.31-2.27.65-4.55,1-6.82.28-1.85.55-3.71.84-5.56,0,.18,0,.35,0,.52-.08,1.52-.15,3.05-.22,4.58,0,.34,0,.69,0,1-.06,1.27,0,2.56,0,3.82a1,1,0,0,0,1,1,1,1,0,0,0,1-1c0-1.27,0-2.56,0-3.84l.06-1.16c.07-1.62.15-3.25.23-4.87s.15-3.14.22-4.71c0-.53.06-1.06.11-1.59q.8-8.13,1.64-16.26c0-.28,0-.56.08-.85l.21-1.39c.41-2.22.86-4.42,1.3-6.63.29-1.5.6-3,.87-4.49.45-2.55.91-5.1,1.35-7.64a1.11,1.11,0,0,0-.1-.78,1,1,0,0,0-1.83.25c-.58,2.59-1.05,5.2-1.57,7.81s-1,5.06-1.44,7.59c-.22,1.14-.35,2.3-.52,3.45-.79,4.1-1.51,8.21-2.27,12.31-.1.55-.18,1.11-.27,1.66l-.78,4.88c-.35,2.16-.71,4.32-1,6.49q-.66,4.41-1.33,8.83c-.35,2.34-.64,4.69-1,7-.23,1.7-.46,3.38-.7,5.07-.13,1-.27,2-.41,3,0-.24-.07-.48-.1-.72-.49-3.78-.76-7.57-1.05-11.37-.12-1.62-.25-3.24-.37-4.87,0-.56-.08-1.12-.1-1.69-.11-3.1-.23-6.2-.34-9.29,0-.6,0-1.19,0-1.79,0-1.67.07-3.35.11-5,0-1.25.05-2.5.07-3.75,0-.18,0-.36,0-.53.06-.6.11-1.19.16-1.79.25-2.85.49-5.7.74-8.55,0-.47.12-.93.18-1.39l.45-3.54.66-5.12c.4-2.56.82-5.11,1.23-7.67.35-2.21.72-4.42,1.13-6.62.26-1.39.52-2.78.81-4.16a29.13,29.13,0,0,0,.81-3.47,1.16,1.16,0,0,0-.1-.78,1,1,0,0,0-.6-.45,1,1,0,0,0-1.23.69c-.31,1.19-.58,2.39-.84,3.59-.11.43-.23.85-.34,1.28s-.18.76-.26,1.13q-.58,2.47-1.14,4.93c-.19.82-.4,1.64-.57,2.46l-.75,3.76c-.33,1.68-.67,3.36-1,5.05-.13.6-.25,1.21-.36,1.82-.55,3-1.09,6-1.64,9-.17.93-.38,1.87-.5,2.81,0-.09,0-.18,0-.26,0,.27-.08.55-.11.83l0-.26c-.53,3.94-1.08,7.89-1.6,11.84v.12c-.12.89-.18,1.78-.26,2.67l-.53,5.3c-.08.83-.16,1.66-.25,2.49v-1.3c0-.7,0-1.41.08-2.11.07-1.74.14-3.49.2-5.23,0-1.29.1-2.57.16-3.86,0-.61.09-1.23.15-1.85.28-3.18.55-6.36.83-9.55.13-1.57.34-3.13.52-4.69s.35-3,.53-4.5c.08-.67.15-1.34.24-2,.34-2.54.7-5.07,1-7.6v0c.34-2.45.69-4.89,1.05-7.34s.73-4.75,1.19-7.11l.24-1.21c.06-.22.1-.44.15-.65s.12-.48.18-.72a6.71,6.71,0,0,0,.12-.9,1,1,0,0,0-1.86-.5c-.34.75-.67,1.49-.94,2.27-.17.48-.32.95-.46,1.43.08-.66.15-1.32.23-2,.21-1.79.47-3.57.65-5.36q.13-1.29.21-2.58c0-.43,0-.87,0-1.3s-.07-.91-.1-1.37a1,1,0,0,0-.74-1,1.15,1.15,0,0,0-.26,0,1,1,0,0,0-.51.14Zm.85,27.92,0,.17,0-.17ZM177.15,381v0Zm1.94.41v0ZM183.55,414l0,.16,0-.16Zm-11.18,4.08a1,1,0,0,0,.46-.28l-.11,3.12c0,.42,0,.84,0,1.26-.14-1-.29-2-.43-3-.06-.36-.11-.72-.16-1.08h0a1.15,1.15,0,0,0,.26,0Zm4.74-36.88v0h0v0Z"/><path class="cls-1" d="M161.7,777.56c-.36.62-.76,1.22-1.17,1.81s-.85,1.06-1.29,1.57-1,1.12-1.52,1.68-1,1-1.53,1.5a36.78,36.78,0,0,1-2.95,2.62,23.47,23.47,0,0,1-2.38,1.59l.33-.37c.28-.32.55-.64.82-1l0,0a15.5,15.5,0,0,0,1.19-1.1c.43-.44.84-.89,1.25-1.35a14.1,14.1,0,0,0,1.35-1.73,9.58,9.58,0,0,0,.55-1c.2-.41.41-.81.59-1.23s.29-.71.42-1.08a6.14,6.14,0,0,0,.23-1,.59.59,0,0,1,0-.13,1,1,0,0,0-.14-.51,1.38,1.38,0,0,0-.39-.41,1.17,1.17,0,0,0-1.06-.09,1.62,1.62,0,0,0-.54.31,2.86,2.86,0,0,0-.35.43c-.11.17-.21.34-.31.52l-.34.68c-.47.93-.89,1.88-1.39,2.8a20.19,20.19,0,0,1-1.62,2.47l-.89,1.09-.16.13c-.92.7-1.87,1.4-2.84,2-.51.33-1,.64-1.54.93a12,12,0,0,1-1.4.67c-.53.23-1.07.44-1.61.64a13,13,0,0,0-2.26.89,1,1,0,0,0-.46,1.12,1.93,1.93,0,0,0,.15.4,1.16,1.16,0,0,0,.46.42,1.69,1.69,0,0,0,.56.19.88.88,0,0,0,.63.1,7.27,7.27,0,0,0,2.23-.14,20.83,20.83,0,0,0,4.36-1.37,25.41,25.41,0,0,0,4.14-2.15,28.29,28.29,0,0,0,3.72-2.92c.5-.46,1-.94,1.48-1.42.34-.33.69-.65,1-1s.85-.92,1.29-1.38.67-.8,1-1.2.68-.85,1-1.29a20,20,0,0,0,1.08-1.68,1,1,0,0,0-.85-1.5,1,1,0,0,0-.87.49Z"/><path class="cls-1" d="M163.35,776a1.44,1.44,0,0,0-.52.31,1.15,1.15,0,0,0-.26.41c-.07.16-.15.33-.22.5s-.19.46-.29.69l-.15.34a1,1,0,0,0-.72.11,2,2,0,0,0-.67,1.09c-.07.18-.14.37-.2.55a10.62,10.62,0,0,1-.79,1.49l-.42.62c-.48.5-1,1-1.46,1.48a55.87,55.87,0,0,1-5.19,4.78,38.53,38.53,0,0,1-3.69,2.5,9,9,0,0,1-1.43.34c-.57.06-1.15.09-1.73.12a1,1,0,0,0-1,1,.8.8,0,0,0,.07.34,16.17,16.17,0,0,1-1.93.41c-.21,0-.43.06-.64.11a1,1,0,0,0-.68.64l-.05,0a1,1,0,0,0,.26,2,5.52,5.52,0,0,0,1.4-.28c.37-.1.74-.21,1.1-.33l.26-.08c-.56.27-1.12.52-1.68.77-.38.14-.86.28-1,.69a1.09,1.09,0,0,0-.1.77,1,1,0,0,0,.7.7,2.49,2.49,0,0,0,.67,0l.54-.07c.29,0,.57-.08.86-.14a13.63,13.63,0,0,0,1.43-.37,14.32,14.32,0,0,0,1.69-.64c.51-.24,1-.5,1.52-.77a31.15,31.15,0,0,0,2.81-1.73c.47-.31.89-.69,1.33-1s.88-.75,1.32-1.12.76-.66,1.13-1l.31-.27.41-.31c.45-.33.9-.67,1.32-1l.14-.12c.32-.22.64-.46.94-.7.76-.62,1.52-1.24,2.23-1.91a24.25,24.25,0,0,0,2-2.08l.23-.28a.82.82,0,0,0,.44-.14c.29-.22.56-.44.83-.68a6.69,6.69,0,0,0,1.22-1.62,2,2,0,0,0,.29-.89,1.19,1.19,0,0,0-.53-1,1,1,0,0,0-.57-.18h-.26c.05-.1.09-.2.13-.29s.17-.35.23-.53a1,1,0,0,0,.08-.28,1.44,1.44,0,0,0,0-.62.83.83,0,0,0-.08-.22,3.11,3.11,0,0,0,0-.43,1.94,1.94,0,0,0-.18-1,1.46,1.46,0,0,0-.41-.45A1.53,1.53,0,0,0,164,776a.82.82,0,0,0-.28,0,1.41,1.41,0,0,0-.33,0Z"/><path class="cls-1" d="M165.47,752.45a7.57,7.57,0,0,0-1.72,3,13.13,13.13,0,0,0-.37,1.65c-.15.74-.31,1.48-.49,2.2a42.19,42.19,0,0,1-1.46,4.84l-.54,1.23a6.1,6.1,0,0,0-3.89,1.67,28.2,28.2,0,0,0-3.18,4.29c-1,1.39-2,2.76-3,4.14l-.82,1.06a27.62,27.62,0,0,1-4.42,4.36,24.41,24.41,0,0,1-3.56,2.15l-.4-.19a17.56,17.56,0,0,0-2-.88,10.73,10.73,0,0,0-2.31-.42,6.33,6.33,0,0,0-6.49,4.4,6.33,6.33,0,0,0-.05,3.26,7.13,7.13,0,0,0,1.63,2.85l.16.18a5.76,5.76,0,0,0,.65,1.69,6.76,6.76,0,0,0,3.94,3.09,23.9,23.9,0,0,0,4.2.69c1.5.17,3,.23,4.51.3a16.26,16.26,0,0,0,8.86-2.38,19.84,19.84,0,0,0,3.75-3c.21-.2.41-.41.61-.63a19,19,0,0,0,5.27-3.73c.21-.21.41-.44.61-.66l.41-.34a11.46,11.46,0,0,0,1.62-1.72,23.13,23.13,0,0,0,2-2.8A11.37,11.37,0,0,0,170.6,778a9.55,9.55,0,0,0,0-1.69c.87-2.52,1.64-5.08,2.49-7.6.55-1.66,1.11-3.3,1.58-5,.9-3.24,1.44-7-.21-10.08a5.8,5.8,0,0,0-9-1.17Z"/></g></g></svg>